<?xml version="1.0" encoding="UTF-8"?>
<svg id="Layer_1" data-name="Layer 1" xmlns="http://www.w3.org/2000/svg" viewBox="0 0 500 500">
  <defs>
    <style>
      .cls-1 {
        fill: #101112;
      }

      .cls-1, .cls-2, .cls-3, .cls-4, .cls-5, .cls-6 {
        stroke-width: 0px;
      }

      .cls-2 {
        fill: #059bb8;
      }

      .cls-3 {
        fill: #fdfdfd;
      }

      .cls-4 {
        fill: #818586;
      }

      .cls-5 {
        fill: #e60c35;
      }

      .cls-6 {
        fill: #fe6a21;
      }
    </style>
  </defs>
  <g id="VkMVz0.tif">
    <g>
      <path class="cls-3" d="m249.76,344.66c-76.3,0-152.61,0-228.91.04-1.77,0-2.17-.4-2.17-2.17.05-61.69.05-123.38,0-185.07,0-1.77.4-2.17,2.17-2.17,152.76.05,305.53.05,458.29,0,1.77,0,2.17.4,2.17,2.17-.05,61.69-.05,123.38,0,185.07,0,1.77-.4,2.17-2.17,2.17-76.46-.05-152.92-.04-229.38-.04Zm-125.08-163.82c.57-.04,1.13-.1,1.49-.72-.7-.11-1.13.25-1.51.7-.12.05-.24.11-.36.16.07.06.13.12.2.17.06-.11.12-.21.18-.32Zm17.44,67.54c.11.26.21.52.32.78.37-.35.18-.69,0-1.04-4.44-7.14-8.92-14.26-14.46-20.63.35-.51.66-1.06,1.06-1.53,5.64-6.59,10.76-13.54,15.03-21.09,4.73-8.35,9.3-16.77,10.63-26.5,1.72-12.58-5.48-21.18-18.19-21.63-4.75-.17-9.41.51-14.21,1.54,1.31,1.02,2.8,1.21,4.14,1.7,12.91,4.76,17.77,13.57,14.95,26.99-1.53,7.3-4.44,14.06-8,20.55-2.86,5.22-5.74,10.45-9.62,15.03-7.61-8.8-16.1-16.68-25.23-23.89.8-.63,1.58-1.29,2.4-1.89,7.04-5.19,14.44-9.83,21.8-14.52.45-.07,1.07-.35.85-.72-.27-.45-.75.1-1.12.3-9.09,4.54-18.23,8.99-26.57,14.86-12.69-9.53-26.5-16.93-41.66-21.73-6.05-1.92-12.18-3.16-18.59-2.19-9.45,1.42-14.98,7.74-15.12,17.23-.07,4.86.81,9.54,2.31,14.12.34,1.05.39,2.25,1.35,3.27.2-4.99,1.8-9.32,4.06-13.42,2.48-4.5,6.31-7.35,11.3-8.62,5.15-1.32,10.33-1.04,15.46-.03,12.99,2.55,24.76,8.13,36.09,14.75-8.38,6.27-16.36,13-23.71,20.46-1.03,1.05-1.76,2.43-3.23,3.01-5.58-6.2-10.77-12.75-16.14-19.14,4.48,7.31,8.89,14.62,14.29,21.25-.12.76-.72,1.2-1.18,1.73-8.98,10.26-16.35,21.55-21.98,33.96-2.82,6.21-4.85,12.62-4.38,19.59.59,8.76,6.19,14.78,14.89,16.01,4.26.6,8.49.38,12.71-.3,1.66-.27,3.4-.31,5.27-1.3-.82-.2-1.28-.28-1.72-.41-15.41-4.66-19.32-12.68-18.35-24.07.13-1.48.34-2.98.69-4.43,3.12-13.19,9.94-24.55,17.65-35.46.12-.18.38-.26.58-.38,7.74,8.75,15.99,16.97,25.24,24.15-.39.37-.75.79-1.18,1.11-7.68,5.7-15.64,10.97-23.86,15.92.85.5,1.49-.04,2.14-.37,1.68-.84,3.34-1.73,5.04-2.55,7.21-3.49,14.05-7.63,20.79-11.94,11.41,8.97,24,15.79,37.63,20.74,6.55,2.38,13.19,4.2,20.27,3.72,8.48-.57,14.82-5.56,16.43-13.11.85-3.98.58-7.97-.2-11.95-.56-2.86-1.15-5.72-2.51-8.4-.78,3.75-1.97,7.27-3.61,10.65-2.6,5.36-6.76,8.76-12.57,10.16-4.37,1.05-8.77.95-13.14.17-13.69-2.42-25.98-8.34-37.8-15.37.61-.49,1.21-1,1.83-1.47,8.9-6.81,17.33-14.12,24.79-22.51,1.12.53,1.76,1.56,2.51,2.45,4.63,5.45,9.22,10.93,13.82,16.4Zm259.83,33.42c6.66-.01,12.18.12,17.64-.86,5.33-.96,7.58-3.39,8.22-8.8.37-3.13.35-6.28.45-9.42.04-1.35-.37-1.73-1.71-1.72-7.8.06-15.6.11-23.4-.02-2.37-.04-1.65,1.43-1.76,2.61-.12,1.36-.12,2.34,1.86,2.28,5.04-.15,10.08-.05,15.12-.05q4.58,0,4.2,4.67c-.31,3.85-1.4,5.09-5.24,5.78-1.39.25-2.81.4-4.22.43-8.03.2-16.07.5-24.07-.51-3.02-.38-4.33-1.57-4.65-4.18-.83-6.81-1-13.65-.15-20.47.45-3.6,1.46-4.67,5.06-5.15,9.65-1.3,19.32-1.02,28.98.08,2.48.28,3.93,1.89,3.8,4.31-.15,2.69,1.1,3.2,3.33,2.86.46-.07.95-.04,1.42,0,.83.06,1-.32,1.07-1.11.44-5.39-2.75-9.8-8.09-10.82-2.23-.43-4.53-.6-6.81-.67-8.73-.28-17.49-.87-26.16.68-4.96.89-6.92,2.86-7.76,7.86-1.32,7.89-1.33,15.82.01,23.71.78,4.58,3.41,7.08,7.98,7.7,5.32.73,10.68.79,14.89.83Zm-40.86-16.78c6.57-1.07,8.46-2.24,9.93-6.19,1.18-3.18,1.4-6.43.5-9.73-1.35-4.92-5.13-8.24-9.68-8.27-9.61-.06-19.23,0-28.84-.04-1.14,0-1.67.18-1.67,1.52.05,12.67.04,25.33,0,38,0,1.13.34,1.59,1.48,1.48.7-.07,1.43-.1,2.12,0,1.63.25,1.98-.47,1.95-1.97-.09-4.01.06-8.03-.08-12.03-.06-1.72.53-2.07,2.12-2.03,4.65.1,9.3.09,13.95,0,1.41-.03,2.29.45,3.18,1.5,3.25,3.85,6.94,7.37,9.83,11.46,2.64,3.73,5.92,3.14,9.82,2.9-4.97-5.64-9.68-11-14.61-16.59Zm-78.86-3.89c0,6.06.07,12.12-.04,18.17-.03,1.86.32,2.54,2.39,2.52,11.5-.11,23.01-.1,34.51,0,1.85.01,2.45-.41,2.37-2.32-.07-1.68-.04-2.65-2.29-2.61-9.69.15-19.38-.01-29.08.12-2.17.03-2.66-.63-2.54-2.65.17-2.82.19-5.67,0-8.49-.16-2.26.34-3.06,2.87-3,9.06.19,18.12,0,27.18.13,2.11.03,2.38-.74,2.39-2.56.01-1.84-.46-2.37-2.35-2.35-9.22.1-18.44-.02-27.66.1-2.04.03-2.54-.62-2.42-2.52.16-2.59.17-5.2,0-7.78-.13-1.92.54-2.34,2.36-2.32,9.77.09,19.54-.01,29.31.09,1.84.02,2.34-.53,2.14-2.24-.15-1.33.44-2.69-1.99-2.66-11.74.14-23.48.09-35.22.03-1.57,0-1.98.41-1.96,1.96.09,6.13.04,12.27.04,18.41Zm-97.06,0c0,6.13.06,12.27-.04,18.4-.03,1.67.25,2.3,2.14,2.29,11.66-.1,23.32-.12,34.98.01,2.25.03,2.05-1.05,2.13-2.55.09-1.74-.27-2.42-2.26-2.39-9.77.13-19.54.04-29.3.12-1.74.02-2.52-.26-2.4-2.26.19-3.21.16-6.45,0-9.67-.09-1.8.46-2.21,2.22-2.19,9.14.1,18.28.02,27.41.07,1.73,0,2.81.06,2.8-2.36,0-2.47-1.05-2.51-2.92-2.5-9.14.07-18.28,0-27.41.07-1.65.01-2.18-.41-2.1-2.08.14-2.82.15-5.67,0-8.49-.09-1.73.54-2.05,2.13-2.04,9.93.07,19.85-.04,29.78.09,2.18.03,1.91-1.12,1.93-2.47.03-1.41.16-2.45-1.97-2.43-11.74.12-23.47.09-35.21.02-1.56,0-1.98.41-1.96,1.96.09,6.13.04,12.27.04,18.4Zm43.89.21c0,6.14.13,12.28-.06,18.41-.07,2.33,1.16,1.98,2.6,2.05,1.58.08,2.36-.09,2.34-2.07-.12-10.54-.07-21.09-.03-31.63,0-.7-.53-1.75.44-2.07.89-.29,1.28.75,1.77,1.3,8.8,9.98,17.76,19.83,26.26,30.06,2.89,3.47,5.86,4.96,10.21,4.44,1.47-.17,2-.37,1.99-1.98-.07-12.35-.09-24.71.02-37.06.02-2.05-.89-2.06-2.38-2.02-1.45.04-2.61-.26-2.58,2.06.15,10.46.08,20.93.04,31.39,0,.78.54,1.93-.48,2.31-1,.38-1.41-.79-1.94-1.39-8.81-9.97-17.77-19.82-26.29-30.03-2.82-3.38-5.69-4.93-9.99-4.38-1.46.18-1.98.39-1.95,1.96.09,6.21.04,12.43.04,18.65Zm-23.57-49.4c3.47,0,6.94-.09,10.4.03,3.06.1,4.23,1.31,4.41,4.1.25,3.79-.72,5.54-3.77,5.97-7.53,1.06-15.09.91-22.64.19-1.86-.18-3.02-1.24-3.06-3.26-.01-.63,0-1.28-.15-1.88-.51-2.06-2.18-.76-3.3-1.04-1.02-.26-1.28.35-1.34,1.33-.33,5.25,1.96,8.16,7.39,8.7,8.18.81,16.37.71,24.52-.42,4.8-.66,6.85-3.01,7.21-7.85.08-1.01.01-2.05-.11-3.06-.45-3.76-2.59-6.02-6.34-6.51-2.02-.27-4.08-.29-6.13-.35-5.75-.18-11.51.29-17.24-.46-3.83-.5-4.7-1.66-4.49-5.48.15-2.71,1.55-4.1,5.06-4.54,6.27-.8,12.57-.88,18.86-.07,3.38.44,3.91,1.08,4.58,4.52.45,2.35,2.3.76,3.46,1.1,1.29.37,1.26-.63,1.24-1.57-.1-4.32-2.2-6.88-7.13-7.65-8.15-1.26-16.35-1.09-24.46.44-4.52.85-6.5,3.75-6.46,8.51.04,4.92,1.9,7.36,6.52,8.43,4.27.99,8.63.54,12.95.81Zm176.22,14.58c4.4-.11,8.82,0,13.19-.77,4.37-.78,5.89-2.32,6.68-6.71.49-2.73.22-5.49.4-8.24.09-1.4-.77-1.25-1.65-1.25-6.15,0-12.29.06-18.44-.03-1.56-.02-1.79.55-1.79,1.91,0,1.4.18,2.1,1.88,2.05,4.65-.12,9.3-.06,13.94-.03.54,0,1.24-.36,1.59.53,1.21,3.11-1.09,7.58-4.39,7.94-7.69.85-15.41.74-23.1-.04-2.26-.23-3.5-1.52-3.76-3.82-.56-5.02-.64-10.05-.21-15.07.36-4.21,1.38-5.22,5.53-5.58,6.92-.6,13.86-.49,20.77.07,3.73.3,4.31.99,4.75,4.78.29,2.55,2.19.86,3.3,1.23,1.14.39,1.4-.34,1.35-1.44-.21-4.98-3.05-8-8.04-8.48-7-.67-14.01-.61-21.01-.34-1.72.07-3.43.44-5.12.77-3.13.62-4.94,2.56-5.49,5.7-1.16,6.64-1.22,13.3-.05,19.94.66,3.75,2.66,5.57,6.45,6.14,4.38.66,8.8.53,13.21.75Zm-27.92-16.75c0-4.8-.05-9.59.03-14.39.03-1.57-.11-2.38-2.08-2.35-1.88.03-1.93.83-1.92,2.26.05,8.33.03,16.67,0,25,0,.64.41,1.59-.39,1.88-.79.29-1.14-.67-1.58-1.17-7.17-8.15-14.44-16.22-21.4-24.55-2.21-2.64-4.47-3.74-7.81-3.41-1.48.15-1.81.54-1.8,1.93.05,9.83.06,19.66,0,29.48,0,1.49.29,2.07,1.94,2.05,1.59-.03,2.16-.35,2.14-2.08-.09-8.33-.05-16.67-.03-25,0-.66-.38-1.63.29-1.94.92-.41,1.27.69,1.74,1.23,7.12,8.1,14.32,16.12,21.23,24.39,2.2,2.63,4.47,3.77,7.83,3.4,1.42-.15,1.87-.43,1.85-1.88-.08-4.95-.03-9.91-.03-14.86Zm72.34,31.04c7.4,7.58,14.74,15.15,22.15,22.65,1.09,1.1,1.55,2.18,1.52,3.71-.09,4.32,0,8.65-.05,12.98-.02,1.18.25,1.8,1.56,1.64.62-.08,1.27-.09,1.89,0,1.64.24,2.16-.37,2.11-2.05-.12-4.24.03-8.5-.08-12.74-.04-1.48.46-2.47,1.48-3.49,6.87-6.83,13.67-13.71,20.5-20.59.58-.58,1.13-1.2,1.98-2.12-1.68,0-2.92.13-4.13-.03-2.39-.31-4.06.55-5.72,2.33-5.03,5.42-10.3,10.62-15.41,15.98-1.05,1.1-1.62,1.16-2.74.03-5.64-5.72-11.37-11.34-17.08-16.99-.65-.64-1.17-1.42-2.33-1.36-1.95.09-3.9.03-5.64.03Zm-195.94-14.65q4.27.7,6.02-2.67c.43-.84.93-1.65,1.26-2.53.45-1.22,1.22-1.57,2.51-1.55,6.07.07,12.15.29,18.2-.06,3.67-.21,5.71.84,7.04,4.32,1.29,3.37,1.78,3.35,5.65,2.42-.28-.57-.54-1.12-.83-1.67-4.73-9.14-9.64-18.19-14.1-27.46-1.51-3.13-3.28-4.23-6.61-3.91-1.58.15-2.33.65-3,1.97-3.93,7.7-7.94,15.35-11.92,23.02-1.4,2.69-2.79,5.39-4.21,8.14Zm31.16-32.87c-.16.87.46,1.46.82,2.12,4.82,9.09,9.82,18.1,14.42,27.3,1.49,2.99,3.18,4.19,6.47,3.81,1.51-.18,2.34-.5,3.05-1.9,5.06-9.85,10.23-19.65,15.33-29.48.3-.58.93-1.13.65-1.75-3.09-1.02-4.69.15-6.06,2.98-3.98,8.2-8.32,16.22-12.55,24.29-.34.64-.44,1.56-1.48,1.64-1.2.09-1.34-.93-1.72-1.64-4.38-8.17-8.74-16.35-13.1-24.53q-1.75-3.29-5.81-2.84Zm87.34,117.28c-3.31-5.15-6.61-9.93-9.51-14.95-1.46-2.52-3.13-3.54-5.99-3.23-1.37.15-1.9.38-1.88,1.87.08,5.98.05,11.95.02,17.93,0,1.08.08,1.75,1.48,1.75,1.44,0,1.43-.76,1.43-1.79-.02-4.95-.03-9.91.01-14.86,0-.7-.51-1.76.5-2.06.97-.29,1.24.78,1.64,1.4,3.38,5.21,6.74,10.44,10.11,15.66,1.52,2.34,2.85,2.35,4.35.01,3.39-5.3,6.77-10.61,10.16-15.9.37-.57.67-1.45,1.55-1.12.73.28.41,1.11.41,1.69.02,5.19.03,10.38,0,15.57,0,.96.21,1.42,1.31,1.4,1.03-.03,1.58-.18,1.57-1.41-.05-6.21-.02-12.43-.03-18.64,0-.52.14-1.07-.56-1.38-1.78-.78-5.36.23-6.39,1.87-3.34,5.31-6.68,10.62-10.19,16.19Zm117.77-18.29c-3,.17-5.68.24-8.34.5-2.82.27-4.27,1.52-4.72,4.12-.73,4.21-.7,8.45-.03,12.67.36,2.28,1.81,3.65,4.1,3.92,5.72.66,11.46.75,17.19.08,3.23-.38,4.31-1.62,4.75-4.86.51-3.68.44-7.36-.02-11.04-.39-3.18-1.76-4.59-5.01-4.91-2.74-.27-5.49-.33-7.92-.47Zm-97.46,11.06c0,2.99.04,5.98-.02,8.97-.03,1.2.31,1.64,1.58,1.63,5.99-.06,11.98-.03,17.97-.02.84,0,1.5.03,1.52-1.19.02-1.25-.56-1.4-1.57-1.39-3.7.03-7.41.01-11.11.01-5.61,0-5.55,0-5.49-5.54.02-1.52.52-1.83,1.91-1.8,4.57.08,9.14.02,13.71.03.87,0,1.7.19,1.71-1.21.02-1.35-.72-1.29-1.65-1.29-3.7.02-7.41,0-11.11,0-4.62,0-4.56,0-4.58-4.56,0-1.51.37-2.04,1.96-2,4.88.1,9.77.03,14.66.04.84,0,1.51.03,1.53-1.19.02-1.23-.51-1.42-1.56-1.42-5.91.03-11.82.05-17.73-.01-1.32-.01-1.81.35-1.77,1.72.09,3.07.03,6.14.03,9.2Zm68.9-11.02c-2.28.14-4.56.23-6.83.45-3.01.3-4.26,1.37-4.76,4.31-.7,4.05-.59,8.14-.07,12.21.32,2.51,1.81,3.91,4.33,4.23,5.1.65,10.22.62,15.32.16,3.85-.35,4.8-1.64,4.88-5.54.02-.75.29-1.62-1.02-1.64-1.1-.02-1.82.11-1.74,1.49.12,2.04-.97,3-2.98,3.11-4.33.25-8.65.28-12.98,0-1.75-.11-2.76-.92-2.96-2.71-.34-3.14-.33-6.27-.18-9.42.12-2.48,1.38-3.68,3.84-3.79,3.7-.16,7.4-.25,11.1-.02,2.15.14,4.18.51,4.03,3.43-.06,1.06.73.99,1.47,1.01.9.02,1.18-.31,1.22-1.25.16-3.28-1.16-5.07-4.41-5.58-2.73-.43-5.49-.43-8.25-.46Zm-19.85.39c-2.81-.7-4.62.03-6.26,1.85-1.84,2.04-3.99,3.8-5.91,5.77-.91.93-1.5,1.02-2.44.03-1.96-2.04-4.16-3.86-6.04-5.97-1.59-1.79-3.33-2.31-5.89-1.67,2.32,2.22,4.46,4.26,6.6,6.3q3.88,3.69,0,7.35c-2.53,2.39-5.04,4.8-7.71,7.35,2.72.59,4.55,0,6.19-1.89,1.95-2.25,4.3-4.16,6.34-6.34,1.14-1.22,1.85-1.45,3.11-.09,2.19,2.36,4.74,4.39,6.9,6.78,1.58,1.75,3.27,2.03,4.69,1.73-2.82-3.12-5.72-6.52-8.86-9.67-1.32-1.32-1.2-1.9.1-3.04,3.07-2.68,6-5.52,9.19-8.49Zm-107.08-82.75c0-5.03-.1-10.07.05-15.1.06-1.9-.93-1.79-2.17-1.73-1.18.05-2.46-.46-2.44,1.71.11,9.91.1,19.82,0,29.74-.02,1.94.92,1.91,2.3,1.9,1.36,0,2.37.09,2.31-1.88-.15-4.87-.05-9.75-.05-14.63Zm110.51-5.52c1.52,4.08,2.89,7.66,4.17,11.28.38,1.07.78,1.69,2.11,1.68,1.27-.01,1.77-.51,2.2-1.6,1.52-3.87,3.17-7.69,4.68-11.57.24-.61,1.47-1.52.12-2.06-1.25-.5-1.48.76-1.83,1.61-1.16,2.83-2.32,5.66-3.49,8.49-.46,1.11-.93,2.21-1.61,3.83-.5-1.25-.76-1.87-1-2.51-1.26-3.39-2.52-6.77-3.75-10.16-.28-.78-.57-1.35-1.6-1.37-1.05-.02-1.34.59-1.62,1.34-.53,1.4-1.04,2.79-1.58,4.18-1.04,2.68-2.1,5.35-3.18,8.11-.95-.78-1.08-1.68-1.4-2.47-1.35-3.35-2.69-6.7-3.99-10.07-.35-.9-.96-1.36-1.78-.99-.93.42-.08,1.12.09,1.57,1.55,4.03,3.2,8.02,4.76,12.04.41,1.07.9,1.62,2.19,1.61,1.3,0,1.73-.57,2.13-1.65,1.33-3.6,2.77-7.16,4.39-11.31Zm54.09,5.36c0-2.2,0-4.4,0-6.6,0-.6-.09-1.06-.87-1.09-.84-.03-1.1.34-1.08,1.12.03,1.26-.06,2.52.03,3.77.08,1.25-.4,1.65-1.63,1.61-2.12-.08-4.25.02-6.37-.03-1.7-.05-3.82.7-4.98-.34-1-.89-.22-2.99-.31-4.54-.05-.76.19-1.64-1.11-1.58-1.15.06-.91.87-.91,1.52-.01,4.09,0,8.17,0,12.26,0,.69-.18,1.46.96,1.48,1.07.02,1.02-.62,1.07-1.38.13-1.86-.89-4.46.43-5.37,1.34-.92,3.79-.24,5.76-.27.39,0,.79-.02,1.18,0,1.87.12,4.21-.77,5.49.37,1.19,1.07.27,3.4.4,5.18.05.68-.2,1.47.95,1.47,1.12,0,1-.72,1-1.44,0-2.04,0-4.09,0-6.13ZM61.22,341.08c-.2-3.59-.34-6.56-.54-9.54-.04-.65.23-1.59-.69-1.79-.76-.17-.92.71-1.25,1.2-.35.52-.65,1.07-.97,1.61-1.63,2.71-3.25,5.43-4.88,8.14-.69-3.33-.94-6.5-1.22-9.68-.05-.52-.04-1.24-.73-1.3-.66-.06-.62.59-.59,1.04.33,3.99.68,7.98,1.05,11.96.02.26.24.62.46.73.42.21.73-.11.95-.46.34-.53.65-1.07.98-1.61,1.73-2.83,3.46-5.66,5.18-8.48.61,2.29.73,4.39.94,6.48.14,1.37-.39,3.57.74,3.89,1.4.39,1.71-1.85,2.54-2.92.72-.92,1.28-1.97,1.91-2.97,1.55-2.48,3.1-4.96,4.78-7.65-.63-.03-.97-.15-1.06-.04-2.88,3.31-4.6,7.39-7.61,11.38Zm388.09-138.96c-2.36,0-4.73.01-7.09,0-.75,0-1.2.19-1.17,1.05.03.82.59.79,1.15.79,1.26,0,2.53.1,3.78-.02,1.75-.18,2.48.26,2.37,2.23-.19,3.21-.06,6.44-.04,9.67,0,.66-.26,1.48.89,1.54,1.27.06,1.1-.79,1.1-1.58,0-2.12-.06-4.25.02-6.37.06-1.77-.8-4.12.4-5.15,1.02-.87,3.3-.27,5.02-.32.16,0,.32,0,.47,0,.58-.04,1.32.21,1.37-.8.06-1.1-.68-1.03-1.41-1.03-2.28,0-4.57,0-6.85,0Zm-26.22,101.2c0-2.98-.02-5.97,0-8.95.01-1.09.08-1.98-1.52-1.95-1.5.02-1.38.87-1.37,1.84.01,5.97.01,11.93,0,17.9,0,.97-.12,1.8,1.38,1.82,1.62.03,1.52-.87,1.51-1.95-.02-2.9,0-5.81,0-8.71Zm35.35,37.87c-1.95-3.79-3.62-7.07-5.31-10.34-.28-.54-.51-1.27-1.31-1.12-.63.12-.69.77-.83,1.3-.95,3.56-1.92,7.12-2.83,10.69-.12.49-.79,1.34.23,1.52.86.15.77-.83.93-1.37.92-3.23,1.8-6.47,2.81-10.1,1.91,3.67,3.64,6.99,5.38,10.31.28.53.43,1.34,1.24,1.18.59-.12.65-.81.79-1.33.83-3.11,1.7-6.2,2.45-9.33.22-.93,1.4-2.42.15-2.75-1.12-.29-1.01,1.63-1.3,2.59-.82,2.7-1.5,5.43-2.4,8.76Zm-135.53-7.76c.02-1.91-.91-2.92-2.5-3.46-1.54-.53-3.13-.21-4.68-.37-1.7-.18-2.55.38-2.91,2.14-.55,2.69-1.46,5.3-2.07,7.98-.26,1.14-1.33,3.18-.4,3.31,1.62.23,1.05-1.99,1.57-3.1.41-.88.29-2.11,1.79-2.02,1.35.08,2.86-.44,3.57,1.42.47,1.24,1.19,2.39,1.84,3.56.24.43.67.75,1.17.4.43-.3.12-.7-.05-1.03-.43-.84-.79-1.73-1.31-2.51-.85-1.28-1.04-2.04.87-2.52,1.9-.47,3.03-1.89,3.12-3.79Zm-30.52,7.76c-1.99-3.85-3.68-7.12-5.38-10.39-.25-.48-.43-1.06-1.1-1.09-.47-.02-.71.34-.81.72-1.1,4.01-2.18,8.03-3.25,12.05-.09.32-.05.65.32.77.47.15.74-.13.88-.53.2-.6.37-1.2.53-1.81.79-2.92,1.57-5.85,2.48-9.23,1.88,3.66,3.52,6.87,5.2,10.06.31.59.43,1.58,1.27,1.52,1.02-.06.89-1.14,1.08-1.84.93-3.33,1.84-6.66,2.69-10.01.13-.52.81-1.35-.02-1.65-1.04-.37-1,.79-1.17,1.36-.9,3.17-1.72,6.36-2.71,10.06Zm9.67,2.3c1.18,0,2.36,0,3.54,0,.54,0,1.29.06,1.31-.65.02-.85-.79-.55-1.27-.56-1.81-.04-3.62,0-5.43-.03-.44,0-1.06,0-1.29-.26-.7-.81,1.24-4.85,2.33-4.88,1.81-.05,3.62,0,5.43-.03.47,0,1.02-.07.93-.73-.07-.49-.56-.47-.94-.48-1.26-.02-2.53.1-3.77-.05-.81-.1-2.57.73-2.16-1.02.32-1.38-.35-3.8,2.31-3.89,2.04-.07,4.09-.02,6.13-.02.52,0,1.03-.16,1.05-.7.03-.68-.61-.57-1.05-.58-2.28-.01-4.56.07-6.84-.04-1.28-.06-1.84.45-2.13,1.62-.62,2.51-1.31,5.01-1.97,7.51q-1.26,4.78,3.82,4.78Zm-43.09-13.87c-1.18,0-2.36.04-3.54-.01-.99-.04-1.57.2-1.85,1.29-.95,3.72-2.01,7.42-3.01,11.13-.16.58-.41,1.39.59,1.41,2.75.06,5.5.03,8.25,0,.41,0,.78-.25.72-.73-.07-.56-.58-.43-.93-.43-1.26-.03-2.52-.01-3.77-.01-3.72,0-3.65.02-2.7-3.57.33-1.24.87-1.68,2.1-1.61,1.57.08,3.14.03,4.72.01.52,0,1.3.1,1.26-.65-.04-.72-.82-.56-1.34-.57-1.42-.02-2.83.01-4.25-.02-.5-.01-1.12.21-1.39-.52-.58-1.57,1.37-4.41,3.07-4.42,1.89-.01,3.77,0,5.66-.03.5,0,.97-.22.89-.82-.07-.53-.59-.42-.95-.42-1.18-.03-2.36,0-3.54-.01Zm18.64,0c-1.18,0-2.36.04-3.54-.01-1-.04-1.59.27-1.86,1.33-.94,3.72-1.93,7.43-2.96,11.13-.31,1.1.06,1.44,1.09,1.43,2.36-.01,4.72,0,7.07-.01.52,0,1.35.07,1.34-.6-.01-.95-.94-.57-1.48-.59-1.73-.05-3.46,0-5.19-.03-.43,0-.95.15-1.24-.39-.66-1.26,1.32-4.73,2.73-4.75,1.65-.02,3.3-.01,4.95,0,.5,0,1.07-.09,1.08-.64.01-.62-.62-.58-1.07-.58-1.49-.02-2.99,0-4.48-.02-.51-.01-1.13.15-1.45-.48-.68-1.33,1.19-4.45,2.71-4.46,1.89-.02,3.77,0,5.66-.01.48,0,1.08-.04,1.12-.6.07-.88-.71-.64-1.19-.66-1.1-.04-2.2-.01-3.3-.02Zm-108.03,6.57c-.32,0-.64-.04-.94,0-.65.1-1.79-.35-1.82.51-.04,1.16,1.18.55,1.84.72.62.16,1.76-.35,1.77.57.01,1.36-.11,3.01-1.48,3.75-1.89,1.01-4.02,1.15-5.86-.09-1.82-1.23-2.24-3.15-1.72-5.24,1.27-5.13,6.03-7.09,10.45-4.29.35.22.68.52,1.03.23.52-.43.15-.89-.21-1.17-.61-.48-1.24-.99-1.95-1.28-4.03-1.62-9.09,1.11-10.46,5.59-1.14,3.73.37,6.88,3.8,7.94,3.66,1.13,6.43-.45,7.57-4.32q.87-2.93-2.02-2.93Zm216.1-.6c.05-3.37-2.51-6.02-5.88-6.1-4.21-.1-8.1,3.84-8.1,8.2,0,3.32,2.68,6.01,6,6.03,4.07.02,7.92-3.9,7.98-8.13Zm-51.25.6c-.63,0-1.26,0-1.89,0-.49,0-1.07.1-1.05.67.03.61.66.54,1.12.55.63.02,1.26.02,1.89.01.79,0,1.15.26.93,1.14-.51,1.97-1.04,3.74-3.65,3.83-2.82.1-4.59-.7-5.37-2.85-.88-2.43.28-5.72,2.65-7.53,2.37-1.81,4.98-1.87,7.39-.16.42.3.82,1.01,1.35.38.47-.56-.21-.99-.56-1.34-.81-.8-1.81-1.22-2.94-1.37-3.89-.5-7.52,1.71-8.96,5.46-1.45,3.78-.11,7.15,3.31,8.33,3.82,1.33,6.76-.29,7.91-4.37q.79-2.78-2.14-2.78Zm-293.99-6.7c-4.12.03-7.86,3.98-7.77,8.23.07,3.43,2.63,6,5.99,6,4.08,0,7.87-3.92,7.9-8.17.03-3.5-2.58-6.08-6.12-6.06Zm399.82,0c-4.22-.03-7.8,3.69-7.8,8.11,0,3.54,2.39,6.06,5.78,6.11,4.09.06,7.91-3.78,8-8.05.07-3.56-2.44-6.16-5.98-6.18Zm-349.71,8.08c-.02,3.46,2.44,6.06,5.8,6.14,4.17.1,8.02-3.88,8-8.26-.02-3.49-2.44-5.93-5.93-5.96-4.17-.04-7.85,3.74-7.88,8.08Zm54.93-.44q4.25,0,3.16,4.05c-.06.23-.18.44-.22.67-.07.51-.49,1.24.16,1.46.84.29.96-.55,1.12-1.15.83-3.11,1.7-6.2,2.44-9.32.24-1.01,1.46-2.65.19-2.98-1.18-.31-.93,1.78-1.4,2.77-.49,1.03-.21,2.38-1.3,3.15-.42.3-7.09.19-7.22-.12-.67-1.53.49-2.82.64-4.25,0-.08.05-.15.05-.23,0-.49.61-1.19-.14-1.44-.91-.3-.95.66-1.09,1.18-.84,2.94-1.7,5.88-2.37,8.86-.25,1.1-1.43,2.97-.26,3.25,1.29.31,1.24-1.89,1.39-2.96.35-2.46,1.52-3.4,3.92-2.95.3.06.63,0,.94,0Zm35.63,0q4.17,0,3.12,4.14c-.08.3-.18.6-.25.91-.1.43-.41.98.24,1.18.56.17.83-.29.96-.79,1.06-3.95,2.12-7.89,3.18-11.84.11-.39.21-.84-.24-1-.58-.2-.84.24-.98.73-.18.6-.32,1.22-.5,1.82-1.22,4.14-.17,3.59-4.82,3.62-4.37.03-4.35.01-3.27-4.32.14-.57,1-1.52-.02-1.8-1.12-.31-1,.98-1.19,1.63-.82,2.79-1.61,5.59-2.27,8.42-.26,1.15-1.3,3.22-.42,3.34,1.64.23,1.33-1.95,1.55-3.08.45-2.35,1.5-3.47,3.96-2.96.3.06.63,0,.94,0Zm26.49,6.07c1.38.25,1.76-.33,2.02-.87,1.12-2.3,2.96-3.02,5.4-2.64.61.1,1.26.08,1.88,0,1.82-.24,2.86.38,2.89,2.35,0,.59.05,1.49.94,1.28.88-.21.41-1.07.31-1.6-.5-2.78-1-5.56-1.64-8.3-.3-1.29.18-3.37-1.33-3.65-1.44-.27-1.95,1.79-2.77,2.86-2.59,3.4-5.04,6.89-7.71,10.57Zm197.25.48c2.6.05,5.07-1.62,6.04-4.44.95-2.73,1.62-5.56,2.41-8.35.12-.43.41-.98-.24-1.17-.78-.22-.88.49-1.02.99-.58,2.04-1.14,4.07-1.67,6.12-.38,1.45-.83,2.86-1.87,4-1.45,1.58-3.87,2.08-5.58,1.1-1.89-1.08-1.77-2.8-1.34-4.55.48-1.98,1.11-3.92,1.55-5.91.12-.55.92-1.47-.17-1.76-.8-.22-.87.78-1.02,1.31-.64,2.34-1.32,4.68-1.78,7.06-.62,3.22,1.39,5.53,4.68,5.59Zm-40.11-14.14c.11-.01-.37-.03-.82.09-1.8.45-3.22,1.38-3.51,3.35-.28,1.92,1.11,2.78,2.57,3.51.7.35,1.45.61,2.16.94,1.12.51,2.17,1.15,1.87,2.61-.28,1.42-1.37,2.07-2.71,2.25-1.87.25-3.61-.06-5-1.48-.36-.37-.8-.61-1.18-.09-.29.4.09.7.34,1,2,2.43,6.79,2.58,8.95.29,1.64-1.74,1.4-3.9-.67-5.17-1.06-.65-2.28-1.05-3.4-1.61-.95-.47-1.84-1.07-1.6-2.31.21-1.11,1.03-1.72,2.09-1.99,1.69-.42,3.27-.22,4.68.89.37.29.78.68,1.18.13.38-.53-.1-.86-.45-1.14-1.14-.95-2.46-1.35-4.52-1.26Zm-128.05,8.81c-.09,3.02.97,4.46,3.4,5.12,3.02.81,5.99-.72,7.29-4.07.9-2.33,1.52-4.78,2.1-7.21.18-.76,1.26-2.06,0-2.36-1.1-.26-.92,1.39-1.21,2.19-.93,2.65-1.12,5.56-2.58,8.03-1.27,2.16-3.82,3-5.92,2.01-2.23-1.05-2.01-2.97-1.56-4.87.5-2.13,1.13-4.24,1.69-6.36.12-.45.29-.98-.39-1.12-.47-.09-.72.28-.81.68-.66,2.82-1.75,5.53-2.01,7.97Zm233.21-8.82c.07,0-.42-.02-.87.07-1.82.39-3.28,1.3-3.63,3.24-.37,2.03,1.07,2.95,2.64,3.69.71.33,1.45.61,2.16.95,1.01.49,2.1,1.04,1.89,2.38-.21,1.4-1.26,2.17-2.6,2.39-1.95.33-3.77.03-5.24-1.46-.28-.29-.64-.55-1.02-.22-.53.46-.08.82.22,1.17,1.96,2.33,6.62,2.55,8.8.41,1.76-1.72,1.53-4.07-.6-5.36-1-.61-2.14-.99-3.2-1.5-.95-.45-1.92-1-1.76-2.23.17-1.35,1.18-1.97,2.43-2.21,1.63-.31,3.13-.06,4.44,1.02.37.3.79.62,1.16,0,.26-.45-.1-.73-.38-.98-1.11-.98-2.43-1.43-4.45-1.37Zm-357.38.01c.09,0-.4-.03-.85.09-1.78.47-3.23,1.36-3.5,3.36-.27,1.94,1.11,2.79,2.58,3.5.78.38,1.58.71,2.37,1.06.99.44,1.8,1.03,1.72,2.26-.08,1.29-.93,2.02-2.04,2.32-1.99.53-3.9.37-5.51-1.13-.38-.36-.83-.95-1.35-.28-.38.49.16.84.47,1.17,1.96,2.08,5.98,2.38,8.26.61,2.19-1.7,2.05-4.4-.37-5.8-1.08-.63-2.29-1.04-3.42-1.6-.81-.4-1.45-.96-1.36-2,.08-.98.68-1.6,1.49-1.97,1.9-.85,3.68-.5,5.33.69.38.28.8.68,1.19.11.35-.52-.13-.85-.49-1.15-1.14-.96-2.47-1.33-4.51-1.24Zm-28.42-.06c-3.48,0-6.57,2.48-7.73,6.18-.88,2.8-.24,5.38,1.69,6.85,2.07,1.58,5.21,1.63,7.53.05.54-.37,1.56-.79,1.13-1.51-.61-1.02-1.16.14-1.66.44-1.99,1.18-4.06,1.48-5.99.12-2.03-1.43-2.05-3.58-1.37-5.74,1.56-4.99,5.79-6.37,10.11-3.32.34.24.66.49,1.03.17.52-.45.09-.86-.18-1.21-1.15-1.48-2.72-2.07-4.55-2.03Zm116.04,12.25c-.62-3.91-1.15-7.21-1.69-10.51-.1-.64.07-1.68-.99-1.45-.83.18-.39,1.07-.3,1.62.56,3.56,1.18,7.11,1.77,10.66.09.55.1,1.23.66,1.42.74.25,1.08-.46,1.43-.96,2.53-3.59,5.07-7.17,7.56-10.79.4-.58,1.13-1.06.63-2.18-3.3,3.62-5.85,7.82-9.07,12.19Zm237.42-132.09c0,2.04-.01,4.08,0,6.11,0,.72-.3,1.67,1.04,1.61,1.13-.06.9-.86.9-1.53,0-4.08,0-8.15,0-12.23,0-.68.18-1.45-.95-1.5-1.16-.05-.99.74-.99,1.42-.01,2.04,0,4.08,0,6.11Zm-92.45,126.94c-.86-1.98-1.62-3.79-2.44-5.57-.27-.59-.46-1.68-1.34-1.26-.92.45-.04,1.27.2,1.79,1.6,3.4,3.57,6.72,1.63,10.66-.15.31-.21.87.28.99.8.2.95-.55.98-1.02.22-3.67,2.78-5.85,5.16-8.12,1.35-1.29,2.82-2.44,4.24-3.66-.29-.31-.59-.62-.88-.93-3.11,1.64-4.82,4.98-7.83,7.11Zm-219.08-6.97c-1.18,0-2.36-.05-3.53.02-.7.04-1.89-.43-1.89.7,0,.94,1.13.42,1.75.56.15.03.32.02.47,0,1.82-.25,2.13.51,1.64,2.14-.9,3-1.65,6.04-2.47,9.06-.12.44-.42,1.02.14,1.23.68.26.92-.35,1.08-.91.61-2.27,1.3-4.51,1.83-6.8.64-2.73.88-5.78,5.04-4.73.07.02.16,0,.23-.01.42-.06.8-.26.8-.7,0-.51-.47-.55-.86-.55-1.41-.01-2.83,0-4.24-.01Zm295.12,0c-.94,0-1.89-.08-2.82.02-.85.09-2.38-.52-2.37.67.01,1.16,1.55.57,2.35.55,1.61-.04,2.03.34,1.51,1.99-.95,2.98-1.67,6.04-2.44,9.07-.11.43-.7,1.12.2,1.35.75.19.83-.55.98-1.05.67-2.41,1.47-4.8,1.94-7.26.52-2.7,1.23-4.89,4.69-4.06.07.02.16,0,.23,0,.48-.06.98-.17.9-.8-.07-.52-.56-.46-.94-.46-1.41-.02-2.83,0-4.24-.01Zm-29.37,13.88c.94,0,1.89.04,2.83-.01.64-.04,1.69.3,1.66-.72-.02-.85-1.01-.44-1.55-.47-1.33-.07-2.68-.13-4.01,0-1.82.18-1.92-.62-1.51-2.06.87-3.01,1.65-6.05,2.45-9.08.12-.47.59-1.16-.18-1.39-.7-.22-.86.51-1.01,1.03-.75,2.72-1.49,5.44-2.21,8.17q-1.2,4.54,3.53,4.54Zm-163.61-.03c1.26,0,2.51.03,3.77-.01.44-.01,1.02-.08.9-.76-.09-.53-.6-.4-.96-.41-1.57-.02-3.14-.08-4.71,0-1.46.08-1.97-.22-1.47-1.83.96-3.06,1.71-6.19,2.5-9.3.11-.44.69-1.15-.1-1.41-.88-.29-.96.61-1.11,1.16-.75,2.72-1.46,5.44-2.18,8.17q-1.16,4.42,3.35,4.39Zm-203.77-13.66c-.19-.05-.38-.11-.57-.16-.2.21-.51.39-.58.64-1.11,4.01-2.17,8.04-3.28,12.05-.32,1.17.43,1.15,1.16,1.15,1.81.02,3.63.05,5.44,0,.81-.03,2.27.35,2.25-.57-.03-1.25-1.5-.6-2.29-.61-5.27-.08-5.24-.04-3.9-5.08.65-2.46,1.59-4.86,1.77-7.42Zm402.37,13.58c.13-.16.42-.35.5-.61,1.12-4.07,2.22-8.14,3.31-12.22.11-.41,0-.82-.52-.85-.46-.02-.68.32-.79.72-1.08,4-2.17,8-3.24,12-.13.48-.14.97.73.96Zm-273.16-.97c-.09.53-.06.86.31.95.44.11.79-.12.9-.54,1.12-4.08,2.22-8.16,3.31-12.24.11-.4.08-.85-.44-.87-.23-.01-.65.24-.7.45-1.17,4.14-2.3,8.3-3.38,12.25Zm-19.64-4.17c.79-.4,2.37.62,2.41-.79.02-.88-1.56-.5-2.4-.46-.88.04-2.44-.64-2.46.72-.02.9,1.57.28,2.45.54Z"/>
      <path class="cls-5" d="m94.65,256.91c-6.74,4.31-13.58,8.45-20.79,11.94-1.69.82-3.35,1.71-5.04,2.55-.66.33-1.3.86-2.14.37,8.22-4.94,16.18-10.22,23.86-15.92.43-.32.79-.74,1.18-1.11,1.57-.85,3.02-1.85,4.11-3.3.28-.11.61-.15.84-.33,9.08-7.3,17.41-15.33,24.51-24.59.38-.49.83-.96.78-1.65,1.15-.34,1.48-1.32,1.83-2.3,3.88-4.58,6.75-9.81,9.62-15.03,3.56-6.5,6.47-13.25,8-20.55,2.82-13.42-2.04-22.23-14.95-26.99-1.34-.49-2.83-.69-4.14-1.7,4.8-1.03,9.45-1.71,14.21-1.54,12.7.46,19.91,9.05,18.19,21.63-1.33,9.73-5.9,18.15-10.63,26.5-4.27,7.54-9.4,14.5-15.03,21.09-.4.47-.71,1.02-1.06,1.53-.73.68-1.46,1.36-2.19,2.04-7.46,8.38-15.89,15.7-24.79,22.51-.62.48-1.22.98-1.83,1.48-1.56,1.06-3.19,2.02-4.52,3.39Z"/>
      <path class="cls-2" d="m66.48,230.59c-.19.13-.45.21-.58.38-7.71,10.91-14.54,22.27-17.65,35.46-.34,1.45-.56,2.94-.69,4.43-.97,11.39,2.94,19.41,18.35,24.07.44.13.9.22,1.72.41-1.87.98-3.6,1.03-5.27,1.3-4.22.68-8.45.9-12.71.3-8.7-1.23-14.3-7.25-14.89-16.01-.47-6.97,1.57-13.38,4.38-19.59,5.62-12.41,13-23.71,21.98-33.96.46-.52,1.06-.97,1.18-1.73.77-.57,1.45-1.22,1.85-2.11,1.47-.58,2.2-1.97,3.23-3.01,7.35-7.46,15.33-14.19,23.71-20.46,1.6-1.13,3.21-2.25,4.81-3.38,8.34-5.87,17.48-10.32,26.57-14.86.09.14.19.27.28.41-7.36,4.7-14.77,9.34-21.8,14.53-.82.61-1.6,1.26-2.4,1.89-1.58.88-2.97,2.01-4.25,3.27-5.64,4.17-10.82,8.88-15.7,13.9-3.71,3.82-7.49,7.61-10.33,12.18-.81.71-1.42,1.56-1.79,2.57Z"/>
      <path class="cls-6" d="m95.91,196.69c-1.6,1.13-3.21,2.25-4.81,3.38-11.33-6.61-23.1-12.2-36.09-14.75-5.14-1.01-10.31-1.28-15.46.03-4.99,1.27-8.81,4.12-11.3,8.62-2.26,4.09-3.85,8.43-4.06,13.42-.96-1.02-1-2.22-1.35-3.27-1.5-4.59-2.38-9.27-2.31-14.12.14-9.5,5.67-15.81,15.12-17.23,6.41-.96,12.54.28,18.59,2.19,15.16,4.8,28.97,12.2,41.66,21.73Z"/>
      <path class="cls-1" d="m401.95,281.81c-4.21-.03-9.57-.1-14.89-.83-4.57-.62-7.2-3.12-7.98-7.7-1.34-7.9-1.34-15.82-.01-23.71.84-5,2.8-6.97,7.76-7.86,8.68-1.55,17.43-.96,26.16-.68,2.28.07,4.57.25,6.81.67,5.34,1.02,8.53,5.43,8.09,10.82-.06.79-.24,1.17-1.07,1.11-.47-.03-.95-.06-1.42,0-2.24.34-3.48-.16-3.33-2.86.13-2.42-1.32-4.03-3.8-4.31-9.65-1.1-19.33-1.38-28.98-.08-3.6.49-4.61,1.56-5.06,5.15-.85,6.82-.68,13.66.15,20.47.32,2.61,1.63,3.79,4.65,4.18,8,1.01,16.04.71,24.07.51,1.41-.04,2.83-.19,4.22-.43,3.84-.68,4.92-1.92,5.24-5.78q.38-4.67-4.2-4.67c-5.04,0-10.09-.1-15.12.05-1.98.06-1.98-.92-1.86-2.28.11-1.18-.62-2.65,1.76-2.61,7.8.13,15.6.08,23.4.02,1.34,0,1.75.37,1.71,1.72-.1,3.14-.07,6.29-.45,9.42-.64,5.41-2.89,7.84-8.22,8.8-5.46.99-10.98.85-17.64.86Z"/>
      <path class="cls-1" d="m94.65,256.91c1.33-1.37,2.96-2.33,4.52-3.39,11.82,7.03,24.11,12.95,37.8,15.37,4.37.77,8.76.88,13.14-.17,5.81-1.4,9.97-4.8,12.57-10.16,1.64-3.37,2.82-6.89,3.61-10.65,1.36,2.68,1.94,5.53,2.51,8.4.78,3.97,1.05,7.96.2,11.95-1.61,7.55-7.95,12.54-16.43,13.11-7.08.48-13.72-1.35-20.27-3.72-13.63-4.95-26.23-11.77-37.63-20.74Z"/>
      <path class="cls-1" d="m361.09,265.03c4.92,5.6,9.64,10.95,14.61,16.59-3.9.24-7.18.83-9.82-2.9-2.89-4.09-6.58-7.61-9.83-11.46-.89-1.05-1.77-1.53-3.18-1.5-4.65.09-9.3.1-13.95,0-1.6-.04-2.18.31-2.12,2.03.14,4.01-.02,8.02.08,12.03.04,1.51-.32,2.23-1.95,1.97-.69-.11-1.42-.07-2.12,0-1.14.11-1.48-.35-1.48-1.48.03-12.67.04-25.33,0-38,0-1.34.53-1.52,1.67-1.52,9.61.04,19.23-.02,28.84.04,4.55.03,8.34,3.36,9.68,8.27.9,3.3.68,6.55-.5,9.73-1.47,3.95-3.36,5.12-9.93,6.19Zm-11.64-19.43c-3.62,0-7.24,0-10.85,0-.84,0-1.78-.24-1.76,1.18.04,4.32.03,8.64,0,12.95,0,.85.24,1.29,1.2,1.28,7.47-.04,14.95.13,22.41-.14,4.22-.15,6.33-3.35,6.08-8.21-.24-4.79-2.24-6.94-6.7-7.05-3.46-.08-6.92-.02-10.38-.02Z"/>
      <path class="cls-1" d="m282.23,261.14c0-6.14.05-12.27-.04-18.41-.02-1.55.4-1.97,1.96-1.96,11.74.07,23.48.11,35.22-.03,2.43-.03,1.84,1.33,1.99,2.66.19,1.72-.31,2.26-2.14,2.24-9.77-.1-19.54,0-29.31-.09-1.83-.02-2.49.4-2.36,2.32.18,2.58.16,5.2,0,7.78-.12,1.9.39,2.55,2.42,2.52,9.22-.12,18.44,0,27.66-.1,1.89-.02,2.37.51,2.35,2.35-.01,1.82-.28,2.59-2.39,2.56-9.06-.13-18.13.06-27.18-.13-2.52-.05-3.02.74-2.87,3,.19,2.82.18,5.67,0,8.49-.12,2.01.37,2.68,2.54,2.65,9.69-.13,19.39.03,29.08-.12,2.26-.03,2.22.93,2.29,2.61.08,1.91-.52,2.33-2.37,2.32-11.5-.09-23.01-.1-34.51,0-2.06.02-2.42-.66-2.39-2.52.11-6.05.04-12.11.04-18.17Z"/>
      <path class="cls-1" d="m185.18,261.14c0-6.13.05-12.27-.04-18.4-.02-1.55.4-1.97,1.96-1.96,11.74.06,23.48.1,35.21-.02,2.13-.02,2,1.02,1.97,2.43-.02,1.35.25,2.5-1.93,2.47-9.92-.13-19.85-.02-29.78-.09-1.59-.01-2.22.31-2.13,2.04.15,2.82.14,5.66,0,8.49-.08,1.67.45,2.09,2.1,2.08,9.14-.08,18.28,0,27.41-.07,1.87-.01,2.91.03,2.92,2.5,0,2.42-1.07,2.37-2.8,2.36-9.14-.05-18.28.03-27.41-.07-1.76-.02-2.31.4-2.22,2.19.16,3.22.19,6.45,0,9.67-.12,2,.65,2.28,2.4,2.26,9.77-.08,19.54,0,29.3-.12,1.98-.03,2.35.65,2.26,2.39-.08,1.5.12,2.58-2.13,2.55-11.66-.14-23.32-.11-34.98-.01-1.89.02-2.17-.62-2.14-2.29.1-6.13.04-12.27.04-18.4Z"/>
      <path class="cls-1" d="m229.06,261.35c0-6.22.06-12.43-.04-18.65-.02-1.57.49-1.78,1.95-1.96,4.3-.54,7.17,1,9.99,4.38,8.53,10.21,17.48,20.06,26.29,30.03.53.6.94,1.77,1.94,1.39,1.02-.38.48-1.53.48-2.31.04-10.46.11-20.93-.04-31.39-.03-2.32,1.13-2.02,2.58-2.06,1.49-.04,2.4-.03,2.38,2.02-.11,12.35-.09,24.71-.02,37.06,0,1.6-.53,1.8-1.99,1.98-4.36.52-7.33-.97-10.21-4.44-8.5-10.23-17.46-20.08-26.26-30.06-.49-.56-.88-1.6-1.77-1.3-.97.32-.44,1.37-.44,2.07-.04,10.54-.09,21.09.03,31.63.02,1.98-.76,2.15-2.34,2.07-1.44-.07-2.67.28-2.6-2.05.19-6.13.06-12.27.06-18.41Z"/>
      <path class="cls-1" d="m205.49,211.95c-4.32-.27-8.68.18-12.95-.81-4.62-1.07-6.48-3.52-6.52-8.43-.04-4.77,1.93-7.67,6.46-8.51,8.1-1.52,16.31-1.7,24.46-.44,4.93.77,7.02,3.33,7.13,7.65.02.94.05,1.95-1.24,1.57-1.16-.33-3,1.25-3.46-1.1-.67-3.44-1.2-4.08-4.58-4.52-6.28-.81-12.58-.73-18.86.07-3.51.45-4.91,1.83-5.06,4.54-.21,3.82.66,4.97,4.49,5.48,5.72.75,11.49.29,17.24.46,2.04.06,4.1.09,6.13.35,3.75.49,5.89,2.75,6.34,6.51.12,1.01.18,2.04.11,3.06-.36,4.84-2.41,7.18-7.21,7.85-8.15,1.13-16.34,1.23-24.52.42-5.42-.54-7.71-3.45-7.39-8.7.06-.98.32-1.59,1.34-1.33,1.12.29,2.78-1.02,3.3,1.04.15.6.14,1.25.15,1.88.04,2.01,1.2,3.08,3.06,3.26,7.55.72,15.11.87,22.64-.19,3.05-.43,4.02-2.18,3.77-5.97-.18-2.8-1.35-4-4.41-4.1-3.46-.12-6.93-.03-10.4-.03Z"/>
      <path class="cls-1" d="m381.71,226.53c-4.4-.22-8.83-.09-13.2-.75-3.79-.57-5.79-2.38-6.45-6.14-1.17-6.64-1.11-13.29.05-19.94.55-3.14,2.35-5.08,5.49-5.7,1.69-.34,3.41-.71,5.12-.77,7.01-.27,14.02-.33,21.01.34,5,.48,7.83,3.5,8.04,8.48.05,1.1-.21,1.83-1.35,1.44-1.1-.37-3,1.32-3.3-1.23-.44-3.79-1.02-4.48-4.75-4.78-6.92-.55-13.85-.66-20.77-.07-4.15.36-5.18,1.37-5.53,5.58-.43,5.02-.35,10.05.21,15.07.26,2.3,1.5,3.59,3.76,3.82,7.7.78,15.41.89,23.1.04,3.31-.36,5.61-4.84,4.39-7.94-.35-.89-1.05-.52-1.59-.53-4.65-.03-9.3-.1-13.94.03-1.7.05-1.88-.65-1.88-2.05,0-1.36.23-1.93,1.79-1.91,6.14.09,12.29.04,18.44.03.88,0,1.74-.16,1.65,1.25-.18,2.74.09,5.51-.4,8.24-.79,4.4-2.32,5.94-6.68,6.71-4.36.78-8.78.66-13.19.77Z"/>
      <path class="cls-1" d="m353.79,209.78c0,4.95-.05,9.91.03,14.86.02,1.45-.43,1.73-1.85,1.88-3.36.36-5.63-.77-7.83-3.4-6.91-8.27-14.11-16.29-21.23-24.39-.47-.54-.82-1.64-1.74-1.23-.67.3-.29,1.27-.29,1.94-.02,8.33-.07,16.67.03,25,.02,1.72-.56,2.05-2.14,2.08-1.65.03-1.95-.56-1.94-2.05.06-9.83.06-19.66,0-29.48,0-1.39.32-1.78,1.8-1.93,3.34-.33,5.61.76,7.81,3.41,6.95,8.33,14.23,16.4,21.4,24.55.44.5.79,1.46,1.58,1.17.79-.29.38-1.24.39-1.88.03-8.33.04-16.67,0-25,0-1.43.04-2.24,1.92-2.26,1.97-.03,2.11.78,2.08,2.35-.08,4.79-.03,9.59-.03,14.39Z"/>
      <path class="cls-1" d="m426.13,240.82c1.75,0,3.7.07,5.64-.03,1.15-.06,1.67.71,2.33,1.36,5.71,5.65,11.44,11.27,17.08,16.99,1.11,1.13,1.69,1.07,2.74-.03,5.11-5.36,10.38-10.56,15.41-15.98,1.65-1.78,3.33-2.64,5.72-2.33,1.21.16,2.46.03,4.13.03-.85.91-1.4,1.53-1.98,2.12-6.82,6.87-13.63,13.76-20.5,20.59-1.02,1.02-1.51,2.01-1.48,3.49.1,4.25-.05,8.5.08,12.74.05,1.68-.46,2.29-2.11,2.05-.62-.09-1.27-.08-1.89,0-1.31.16-1.57-.47-1.56-1.64.06-4.33-.04-8.65.05-12.98.03-1.54-.43-2.61-1.52-3.71-7.41-7.5-14.75-15.06-22.15-22.65Z"/>
      <path class="cls-1" d="m230.19,226.17c1.42-2.75,2.81-5.45,4.21-8.14,3.98-7.67,7.99-15.33,11.92-23.02.67-1.32,1.42-1.82,3-1.97,3.33-.31,5.1.78,6.61,3.91,4.46,9.27,9.37,18.32,14.1,27.46.28.54.54,1.1.83,1.67-3.87.92-4.36.95-5.65-2.42-1.33-3.48-3.38-4.53-7.04-4.32-6.05.35-12.13.14-18.2.06-1.29-.02-2.06.33-2.51,1.55-.33.88-.82,1.69-1.26,2.53q-1.74,3.38-6.02,2.67Zm30.73-10.84c-3.01-5.86-5.87-11.43-8.76-17-.88-1.69-1.92-1.88-2.69-.45-3.06,5.72-6.02,11.49-9.12,17.45h20.57Z"/>
      <path class="cls-1" d="m261.34,193.3q4.07-.45,5.81,2.84c4.36,8.18,8.72,16.36,13.1,24.53.38.71.52,1.73,1.72,1.64,1.04-.08,1.15-1,1.48-1.64,4.23-8.07,8.57-16.09,12.55-24.29,1.37-2.83,2.97-4,6.06-2.98.28.62-.35,1.17-.65,1.75-5.11,9.83-10.27,19.63-15.33,29.48-.72,1.4-1.55,1.72-3.05,1.9-3.28.38-4.97-.82-6.47-3.81-4.59-9.21-9.59-18.21-14.42-27.3-.35-.66-.98-1.25-.82-2.12Z"/>
      <path class="cls-5" d="m348.69,310.58c3.5-5.57,6.84-10.88,10.19-16.19,1.03-1.64,4.61-2.65,6.39-1.87.7.31.56.87.56,1.38,0,6.21-.02,12.43.03,18.64,0,1.23-.54,1.38-1.57,1.41-1.1.03-1.31-.44-1.31-1.4.03-5.19.02-10.38,0-15.57,0-.59.32-1.42-.41-1.69-.88-.33-1.18.55-1.55,1.12-3.39,5.3-6.77,10.6-10.16,15.9-1.49,2.34-2.83,2.33-4.35-.01-3.37-5.22-6.73-10.45-10.11-15.66-.4-.62-.67-1.69-1.64-1.4-1.01.3-.5,1.36-.5,2.06-.05,4.95-.04,9.91-.01,14.86,0,1.03.01,1.79-1.43,1.79-1.4,0-1.48-.68-1.48-1.75.03-5.98.06-11.96-.02-17.93-.02-1.49.51-1.72,1.88-1.87,2.85-.31,4.53.71,5.99,3.23,2.9,5.01,6.2,9.79,9.51,14.95Z"/>
      <path class="cls-5" d="m466.45,292.29c2.43.14,5.18.2,7.92.47,3.25.32,4.61,1.73,5.01,4.91.46,3.68.53,7.36.02,11.04-.45,3.24-1.52,4.47-4.75,4.86-5.72.68-11.46.59-17.19-.08-2.29-.27-3.74-1.64-4.1-3.92-.67-4.22-.7-8.46.03-12.67.45-2.6,1.9-3.85,4.72-4.12,2.66-.26,5.34-.33,8.34-.5Zm-.3,18.81c0,.1,0,.21,0,.31,2.36-.1,4.71-.2,7.07-.32,2.05-.1,3.15-1.13,3.3-3.22.22-3.22.21-6.43.02-9.65-.09-1.65-.89-2.72-2.54-2.87-5.1-.45-10.2-.53-15.29.04-1.68.19-2.39,1.24-2.58,2.85-.37,3.21-.29,6.42-.08,9.64.13,2.14,1.23,3.15,3.26,3.2,2.28.06,4.56.01,6.84.01Z"/>
      <path class="cls-5" d="m369,303.35c0-3.07.06-6.14-.03-9.2-.04-1.37.45-1.73,1.77-1.72,5.91.06,11.82.04,17.73.01,1.04,0,1.58.19,1.56,1.42-.02,1.21-.7,1.19-1.53,1.19-4.89,0-9.77.06-14.66-.04-1.59-.03-1.96.49-1.96,2,.02,4.56-.05,4.56,4.58,4.56,3.7,0,7.41.01,11.11,0,.93,0,1.66-.07,1.65,1.29-.02,1.4-.85,1.21-1.71,1.21-4.57,0-9.14.05-13.71-.03-1.39-.02-1.9.29-1.91,1.8-.06,5.54-.13,5.54,5.49,5.54,3.7,0,7.41.02,11.11-.01,1.02,0,1.59.14,1.57,1.39-.02,1.22-.68,1.19-1.52,1.19-5.99,0-11.98-.04-17.97.02-1.28.01-1.61-.43-1.58-1.63.07-2.99.02-5.98.02-8.97Z"/>
      <path class="cls-5" d="m437.89,292.33c2.76.04,5.52.04,8.25.46,3.25.51,4.57,2.3,4.41,5.58-.05.93-.33,1.27-1.22,1.25-.74-.02-1.52.05-1.47-1.01.15-2.92-1.88-3.29-4.03-3.43-3.7-.24-7.4-.15-11.1.02-2.47.11-3.73,1.32-3.84,3.79-.15,3.15-.15,6.28.18,9.42.19,1.8,1.2,2.6,2.96,2.71,4.33.27,8.65.24,12.98,0,2-.12,3.1-1.07,2.98-3.11-.08-1.38.64-1.5,1.74-1.49,1.31.02,1.03.88,1.02,1.64-.08,3.9-1.03,5.19-4.88,5.54-5.1.46-10.22.5-15.32-.16-2.52-.32-4.01-1.72-4.33-4.23-.52-4.07-.62-8.16.07-12.21.51-2.94,1.76-4.01,4.76-4.31,2.27-.22,4.56-.3,6.83-.45Z"/>
      <path class="cls-5" d="m418.04,292.72c-3.19,2.97-6.12,5.81-9.19,8.49-1.3,1.13-1.41,1.72-.1,3.04,3.15,3.15,6.04,6.56,8.86,9.67-1.42.3-3.12.02-4.69-1.73-2.16-2.39-4.71-4.42-6.9-6.78-1.26-1.36-1.98-1.13-3.11.09-2.04,2.18-4.38,4.09-6.34,6.34-1.64,1.89-3.47,2.48-6.19,1.89,2.67-2.55,5.19-4.95,7.71-7.35q3.87-3.66,0-7.35c-2.14-2.04-4.28-4.09-6.6-6.3,2.56-.64,4.3-.11,5.89,1.67,1.88,2.11,4.08,3.93,6.04,5.97.94.99,1.54.9,2.44-.03,1.92-1.97,4.07-3.73,5.91-5.77,1.64-1.82,3.45-2.55,6.26-1.85Z"/>
      <path class="cls-1" d="m310.97,209.96c0,4.88-.1,9.76.05,14.63.06,1.97-.95,1.87-2.31,1.88-1.38,0-2.32.04-2.3-1.9.1-9.91.11-19.82,0-29.74-.02-2.17,1.26-1.66,2.44-1.71,1.24-.05,2.23-.17,2.17,1.73-.15,5.03-.05,10.07-.05,15.1Z"/>
      <path class="cls-1" d="m66.48,230.59c.37-1.01.98-1.86,1.8-2.57,8.37,8.77,17.3,16.87,27.55,23.42-1.08,1.45-2.54,2.45-4.11,3.3-9.25-7.18-17.5-15.4-25.24-24.15Z"/>
      <path class="cls-6" d="m94.3,201.94c1.28-1.27,2.67-2.39,4.25-3.27,9.12,7.21,17.62,15.09,25.23,23.9-.34.98-.67,1.96-1.83,2.3-.42-.35-.87-.66-1.25-1.05-8.03-8.22-16.77-15.59-26.4-21.87Z"/>
      <path class="cls-1" d="m421.48,204.44c-1.62,4.14-3.06,7.7-4.39,11.31-.4,1.08-.83,1.64-2.13,1.65-1.29,0-1.78-.54-2.19-1.61-1.56-4.03-3.21-8.02-4.76-12.04-.18-.46-1.03-1.16-.09-1.57.82-.37,1.44.09,1.78.99,1.3,3.37,2.63,6.72,3.99,10.07.32.79.45,1.68,1.4,2.47,1.08-2.76,2.14-5.43,3.18-8.11.54-1.39,1.06-2.79,1.58-4.18.28-.75.57-1.36,1.62-1.34,1.04.02,1.32.59,1.6,1.37,1.23,3.39,2.49,6.78,3.75,10.16.24.63.5,1.26,1,2.51.68-1.62,1.15-2.72,1.61-3.83,1.17-2.83,2.33-5.66,3.49-8.49.35-.85.58-2.11,1.83-1.61,1.35.54.11,1.45-.12,2.06-1.51,3.88-3.16,7.7-4.68,11.57-.43,1.09-.93,1.59-2.2,1.6-1.33.01-1.73-.62-2.11-1.68-1.29-3.61-2.65-7.2-4.17-11.28Z"/>
      <path class="cls-1" d="m475.57,209.8c0,2.04,0,4.09,0,6.13,0,.71.12,1.45-1,1.44-1.15,0-.91-.8-.95-1.47-.13-1.77.79-4.11-.4-5.18-1.27-1.14-3.62-.25-5.49-.37-.39-.03-.79,0-1.18,0-1.97.02-4.42-.66-5.76.27-1.33.91-.3,3.52-.43,5.37-.05.76,0,1.4-1.07,1.38-1.13-.02-.96-.79-.96-1.48,0-4.09-.02-8.17,0-12.26,0-.66-.24-1.46.91-1.52,1.3-.06,1.06.82,1.11,1.58.09,1.56-.69,3.65.31,4.54,1.17,1.04,3.28.29,4.98.34,2.12.06,4.25-.04,6.37.03,1.23.05,1.71-.36,1.63-1.61-.08-1.25,0-2.51-.03-3.77-.02-.78.24-1.15,1.08-1.12.78.03.87.5.87,1.09,0,2.2,0,4.4,0,6.6Z"/>
      <path class="cls-4" d="m61.22,341.08c3-3.98,4.73-8.07,7.61-11.38.09-.1.43,0,1.06.04-1.68,2.68-3.23,5.17-4.78,7.65-.63,1-1.19,2.05-1.91,2.97-.83,1.06-1.14,3.31-2.54,2.92-1.13-.32-.6-2.52-.74-3.89-.21-2.09-.33-4.19-.94-6.48-1.73,2.83-3.46,5.66-5.18,8.48-.33.54-.64,1.08-.98,1.61-.22.34-.53.66-.95.46-.22-.11-.44-.47-.46-.73-.37-3.99-.72-7.97-1.05-11.96-.04-.44-.08-1.09.59-1.04.7.06.69.77.73,1.3.28,3.17.53,6.35,1.22,9.68,1.63-2.71,3.25-5.43,4.88-8.14.32-.54.62-1.09.97-1.61.33-.49.49-1.37,1.25-1.2.91.2.64,1.14.69,1.79.2,2.97.34,5.95.54,9.54Z"/>
      <path class="cls-1" d="m449.31,202.11c2.28,0,4.57,0,6.85,0,.73,0,1.46-.07,1.41,1.03-.05,1.01-.78.76-1.37.8-.16.01-.32,0-.47,0-1.72.05-4-.55-5.02.32-1.2,1.03-.34,3.37-.4,5.15-.07,2.12-.02,4.25-.02,6.37,0,.78.17,1.64-1.1,1.58-1.15-.06-.89-.88-.89-1.54-.01-3.22-.15-6.46.04-9.67.12-1.97-.62-2.41-2.37-2.23-1.25.13-2.52.03-3.78.02-.56,0-1.11.04-1.15-.79-.04-.86.42-1.06,1.17-1.05,2.36.02,4.73,0,7.09,0Z"/>
      <path class="cls-5" d="m423.09,303.31c0,2.9-.02,5.81,0,8.71,0,1.08.11,1.97-1.51,1.95-1.5-.02-1.38-.85-1.38-1.82.01-5.97.01-11.93,0-17.9,0-.98-.12-1.82,1.37-1.84,1.6-.02,1.53.87,1.52,1.95-.03,2.98,0,5.97,0,8.95Z"/>
      <path class="cls-4" d="m458.44,341.18c.9-3.32,1.58-6.06,2.4-8.76.29-.96.18-2.88,1.3-2.59,1.25.32.07,1.82-.15,2.75-.74,3.13-1.62,6.22-2.45,9.33-.14.52-.2,1.22-.79,1.33-.81.16-.96-.66-1.24-1.18-1.75-3.32-3.47-6.65-5.38-10.31-1.01,3.64-1.89,6.88-2.81,10.1-.16.54-.07,1.53-.93,1.37-1.02-.18-.35-1.04-.23-1.52.91-3.57,1.88-7.13,2.83-10.69.14-.53.2-1.18.83-1.3.8-.15,1.03.59,1.31,1.12,1.69,3.27,3.36,6.54,5.31,10.34Z"/>
      <path class="cls-4" d="m322.91,333.42c-.09,1.9-1.23,3.32-3.12,3.79-1.91.48-1.71,1.24-.87,2.52.52.78.88,1.67,1.31,2.51.17.34.49.73.05,1.03-.49.34-.93.03-1.17-.4-.65-1.17-1.36-2.32-1.84-3.56-.71-1.86-2.23-1.34-3.57-1.42-1.5-.09-1.37,1.14-1.79,2.02-.52,1.11.05,3.33-1.57,3.1-.93-.13.14-2.17.4-3.31.62-2.68,1.52-5.29,2.07-7.98.36-1.76,1.21-2.32,2.91-2.14,1.55.17,3.15-.15,4.68.37,1.59.54,2.52,1.55,2.5,3.46Zm-7.32,3.23c1.77,0,3.35,0,4.72-.97,1.08-.77,1.47-1.84,1.14-3.1-.3-1.18-1.27-1.54-2.35-1.61-1.02-.07-2.05-.08-3.07-.06-1.52.02-3.33,2.77-2.96,4.97.26,1.58,1.83.35,2.51.78Z"/>
      <path class="cls-4" d="m292.39,341.18c.99-3.7,1.81-6.9,2.71-10.06.16-.57.12-1.73,1.17-1.36.83.29.15,1.13.02,1.65-.85,3.35-1.76,6.68-2.69,10.01-.2.7-.06,1.78-1.08,1.84-.84.05-.96-.93-1.27-1.52-1.67-3.19-3.31-6.4-5.2-10.06-.91,3.38-1.69,6.31-2.48,9.23-.16.61-.33,1.21-.53,1.81-.13.4-.41.69-.88.53-.37-.12-.4-.45-.32-.77,1.08-4.02,2.16-8.04,3.25-12.05.1-.38.34-.74.81-.72.67.03.85.61,1.1,1.09,1.69,3.27,3.39,6.54,5.38,10.39Z"/>
      <path class="cls-4" d="m302.06,343.48q-5.08,0-3.82-4.78c.66-2.5,1.35-5,1.97-7.51.29-1.17.85-1.67,2.13-1.62,2.28.1,4.56.02,6.84.04.44,0,1.08-.11,1.05.58-.02.54-.53.7-1.05.7-2.04,0-4.09-.05-6.13.02-2.66.09-1.98,2.5-2.31,3.89-.41,1.75,1.35.92,2.16,1.02,1.24.15,2.51.03,3.77.05.38,0,.88-.01.94.48.09.66-.47.73-.93.73-1.81.02-3.62-.02-5.43.03-1.09.03-3.03,4.07-2.33,4.88.23.26.85.25,1.29.26,1.81.03,3.62,0,5.43.03.48,0,1.29-.29,1.27.56-.02.71-.77.64-1.31.65-1.18.01-2.36,0-3.54,0Z"/>
      <path class="cls-4" d="m258.96,329.61c1.18,0,2.36-.01,3.54.01.36,0,.88-.11.95.42.08.6-.39.81-.89.82-1.89.03-3.77.02-5.66.03-1.7.01-3.64,2.85-3.07,4.42.27.73.9.51,1.39.52,1.41.04,2.83,0,4.25.02.52,0,1.3-.16,1.34.57.04.75-.74.65-1.26.65-1.57.02-3.15.07-4.72-.01-1.23-.06-1.77.37-2.1,1.61-.95,3.59-1.03,3.57,2.7,3.57,1.26,0,2.52-.01,3.77.01.35,0,.86-.13.93.43.06.48-.31.72-.72.73-2.75.02-5.5.05-8.25,0-1-.02-.75-.83-.59-1.41,1-3.71,2.06-7.4,3.01-11.13.28-1.09.86-1.34,1.85-1.29,1.18.05,2.36.01,3.54.01Z"/>
      <path class="cls-4" d="m277.61,329.61c1.1,0,2.2-.03,3.3.01.48.02,1.26-.22,1.19.66-.04.56-.64.6-1.12.6-1.89,0-3.77-.01-5.66.01-1.51.02-3.39,3.13-2.71,4.46.32.63.93.47,1.45.48,1.49.03,2.99,0,4.48.02.46,0,1.09-.04,1.07.58-.01.55-.58.64-1.08.64-1.65,0-3.3-.02-4.95,0-1.42.02-3.39,3.49-2.73,4.75.29.55.8.39,1.24.39,1.73.03,3.46-.02,5.19.03.54.02,1.47-.36,1.48.59,0,.67-.82.6-1.34.6-2.36.02-4.72,0-7.07.01-1.02,0-1.4-.33-1.09-1.43,1.04-3.7,2.02-7.41,2.96-11.13.27-1.06.85-1.37,1.86-1.33,1.18.05,2.36.01,3.54.01Z"/>
      <path class="cls-4" d="m169.58,336.17q2.89,0,2.02,2.93c-1.14,3.87-3.91,5.45-7.57,4.32-3.43-1.06-4.94-4.22-3.8-7.94,1.37-4.48,6.43-7.21,10.46-5.59.71.29,1.34.8,1.95,1.28.36.28.73.74.21,1.17-.35.29-.68,0-1.03-.23-4.42-2.8-9.19-.84-10.45,4.29-.52,2.1-.09,4.01,1.72,5.24,1.84,1.24,3.97,1.11,5.86.09,1.38-.74,1.49-2.39,1.48-3.75,0-.92-1.15-.41-1.77-.57-.67-.17-1.88.45-1.84-.72.03-.86,1.17-.41,1.82-.51.31-.05.63,0,.94,0Z"/>
      <path class="cls-4" d="m385.68,335.57c-.06,4.23-3.91,8.15-7.98,8.13-3.32-.02-6-2.71-6-6.03,0-4.36,3.89-8.29,8.1-8.2,3.37.08,5.93,2.73,5.88,6.1Zm-1.37-.04c.03-2.75-1.96-4.88-4.6-4.94-3.34-.08-6.62,3.35-6.65,6.97-.03,2.85,1.84,4.8,4.62,4.84,3.53.05,6.6-3.13,6.63-6.86Z"/>
      <path class="cls-4" d="m334.43,336.18q2.93,0,2.14,2.78c-1.16,4.07-4.1,5.69-7.91,4.37-3.42-1.19-4.75-4.55-3.31-8.33,1.44-3.75,5.07-5.96,8.96-5.46,1.14.14,2.13.57,2.94,1.37.36.35,1.03.78.56,1.34-.53.63-.93-.08-1.35-.38-2.42-1.71-5.03-1.66-7.39.16-2.37,1.81-3.53,5.1-2.65,7.53.77,2.15,2.54,2.95,5.37,2.85,2.61-.1,3.15-1.86,3.65-3.83.23-.88-.13-1.15-.93-1.14-.63,0-1.26,0-1.89-.01-.46-.02-1.09.06-1.12-.55-.02-.57.55-.67,1.05-.67.63,0,1.26,0,1.89,0Z"/>
      <path class="cls-4" d="m40.44,329.48c3.54-.02,6.14,2.55,6.12,6.06-.03,4.24-3.83,8.17-7.9,8.17-3.36,0-5.92-2.57-5.99-6-.08-4.25,3.65-8.2,7.77-8.23Zm4.77,6.13c.04-2.79-1.86-4.9-4.52-5.01-3.31-.14-6.64,3.28-6.73,6.9-.07,2.85,1.78,4.84,4.55,4.91,3.56.08,6.64-3.04,6.7-6.79Z"/>
      <path class="cls-4" d="m440.26,329.48c3.54.02,6.06,2.62,5.98,6.18-.09,4.27-3.91,8.11-8,8.05-3.4-.05-5.79-2.58-5.78-6.11,0-4.42,3.58-8.14,7.8-8.11Zm4.64,5.96c-.02-2.82-1.95-4.83-4.67-4.85-3.34-.03-6.59,3.48-6.56,7.07.02,2.86,1.89,4.75,4.71,4.74,3.54,0,6.54-3.21,6.52-6.96Z"/>
      <path class="cls-4" d="m90.55,337.56c.02-4.34,3.71-8.12,7.88-8.08,3.48.03,5.91,2.47,5.93,5.96.02,4.38-3.83,8.36-8,8.26-3.37-.08-5.82-2.68-5.8-6.14Zm12.46-2.11c0-2.87-1.85-4.82-4.61-4.87-3.38-.06-6.51,3.33-6.5,7.04,0,2.92,1.78,4.75,4.62,4.77,3.57.02,6.51-3.13,6.5-6.94Z"/>
      <path class="cls-6" d="m125.79,229.54c.73-.68,1.46-1.36,2.19-2.04,5.54,6.37,10.02,13.49,14.46,20.63-.12.08-.22.16-.32.26-4.6-5.47-9.2-10.95-13.82-16.4-.75-.89-1.4-1.92-2.51-2.45Z"/>
      <path class="cls-1" d="m64.16,223.55c-.4.89-1.08,1.54-1.85,2.11-5.4-6.63-9.81-13.94-14.29-21.25,5.36,6.39,10.55,12.93,16.14,19.14Z"/>
      <path class="cls-4" d="m145.47,337.12c-.31,0-.64.05-.94,0-2.4-.45-3.57.49-3.92,2.95-.15,1.07-.09,3.27-1.39,2.96-1.17-.28,0-2.15.26-3.25.67-2.98,1.53-5.92,2.37-8.86.15-.52.19-1.48,1.09-1.18.75.25.13.94.14,1.44,0,.08-.04.15-.05.23-.14,1.43-1.3,2.72-.64,4.25.13.31,6.8.42,7.22.12,1.09-.77.81-2.12,1.3-3.15.47-.99.23-3.08,1.4-2.77,1.27.33.05,1.97-.19,2.98-.74,3.13-1.61,6.22-2.44,9.32-.16.6-.28,1.44-1.12,1.15-.65-.22-.23-.95-.16-1.46.03-.23.16-.44.22-.67q1.09-4.05-3.16-4.05Z"/>
      <path class="cls-4" d="m181.1,337.12c-.32,0-.64.05-.94,0-2.46-.51-3.51.61-3.96,2.96-.22,1.13.1,3.31-1.55,3.08-.89-.12.15-2.2.42-3.34.65-2.83,1.45-5.63,2.27-8.42.19-.65.07-1.94,1.19-1.63,1.02.29.16,1.24.02,1.8-1.08,4.33-1.1,4.35,3.27,4.32,4.65-.03,3.6.52,4.82-3.62.18-.6.32-1.22.5-1.82.14-.48.4-.93.98-.73.46.16.35.61.24,1-1.06,3.95-2.12,7.89-3.18,11.84-.13.49-.4.96-.96.79-.65-.2-.34-.75-.24-1.18.07-.31.17-.6.25-.91q1.05-4.14-3.12-4.14Z"/>
      <path class="cls-4" d="m207.6,343.19c2.67-3.68,5.12-7.18,7.71-10.57.82-1.07,1.33-3.13,2.77-2.86,1.51.28,1.02,2.36,1.33,3.65.64,2.75,1.14,5.53,1.64,8.3.1.53.57,1.39-.31,1.6-.89.21-.94-.69-.94-1.28-.03-1.97-1.07-2.59-2.89-2.35-.62.08-1.27.09-1.88,0-2.44-.39-4.28.34-5.4,2.64-.26.54-.64,1.12-2.02.87Zm10.04-11.85c-1.77,2.42-3.35,4.59-5.03,6.89,6.72.83,6.94.59,5.42-5.52-.09-.35-.19-.69-.39-1.37Z"/>
      <path class="cls-4" d="m404.85,343.68c-3.29-.06-5.31-2.37-4.68-5.59.46-2.38,1.13-4.72,1.78-7.06.15-.54.22-1.53,1.02-1.31,1.09.29.3,1.21.17,1.76-.44,1.99-1.07,3.93-1.55,5.91-.43,1.75-.55,3.48,1.34,4.55,1.71.98,4.13.48,5.58-1.1,1.04-1.14,1.49-2.55,1.87-4,.53-2.05,1.09-4.09,1.67-6.12.14-.5.24-1.21,1.02-.99.65.19.36.74.24,1.17-.79,2.79-1.46,5.61-2.41,8.35-.97,2.82-3.44,4.49-6.04,4.44Z"/>
      <path class="cls-4" d="m364.74,329.54c2.06-.1,3.38.31,4.52,1.26.35.29.83.62.45,1.14-.4.55-.82.16-1.18-.13-1.41-1.1-2.99-1.3-4.68-.89-1.07.26-1.88.88-2.09,1.99-.24,1.24.66,1.84,1.6,2.31,1.12.56,2.34.96,3.4,1.61,2.07,1.27,2.3,3.43.67,5.17-2.16,2.3-6.95,2.14-8.95-.29-.24-.3-.63-.6-.34-1,.38-.52.82-.28,1.18.09,1.39,1.42,3.13,1.73,5,1.48,1.34-.18,2.42-.83,2.71-2.25.29-1.46-.76-2.1-1.87-2.61-.71-.33-1.46-.59-2.16-.94-1.45-.73-2.84-1.59-2.57-3.51.28-1.97,1.71-2.9,3.51-3.35.45-.11.94-.1.82-.09Z"/>
      <path class="cls-4" d="m236.69,338.35c.27-2.44,1.35-5.15,2.01-7.97.09-.39.34-.77.81-.68.68.14.51.67.39,1.12-.56,2.12-1.19,4.23-1.69,6.36-.45,1.9-.67,3.82,1.56,4.87,2.1.99,4.65.15,5.92-2.01,1.45-2.47,1.64-5.38,2.58-8.03.28-.8.11-2.45,1.21-2.19,1.27.3.18,1.6,0,2.36-.58,2.43-1.19,4.89-2.1,7.21-1.3,3.35-4.27,4.88-7.29,4.07-2.43-.65-3.49-2.09-3.4-5.12Z"/>
      <path class="cls-4" d="m469.9,329.53c2.02-.06,3.33.39,4.45,1.37.28.25.64.53.38.98-.37.62-.79.3-1.16,0-1.31-1.08-2.82-1.33-4.44-1.02-1.26.24-2.26.86-2.43,2.21-.15,1.23.81,1.78,1.76,2.23,1.06.51,2.2.9,3.2,1.5,2.13,1.29,2.36,3.63.6,5.36-2.18,2.14-6.84,1.92-8.8-.41-.3-.35-.75-.71-.22-1.17.38-.33.74-.06,1.02.22,1.46,1.5,3.29,1.79,5.24,1.46,1.34-.22,2.39-.99,2.6-2.39.2-1.35-.88-1.89-1.89-2.38-.71-.34-1.45-.62-2.16-.95-1.57-.74-3.01-1.65-2.64-3.69.35-1.94,1.81-2.85,3.63-3.24.46-.1.94-.08.87-.07Z"/>
      <path class="cls-4" d="m112.52,329.54c2.03-.09,3.37.28,4.51,1.24.35.3.84.63.49,1.15-.38.57-.8.17-1.19-.11-1.65-1.19-3.43-1.54-5.33-.69-.81.36-1.41.99-1.49,1.97-.09,1.04.55,1.6,1.36,2,1.13.56,2.33.97,3.42,1.6,2.42,1.4,2.56,4.1.37,5.8-2.28,1.76-6.3,1.47-8.26-.61-.31-.33-.85-.68-.47-1.17.52-.66.97-.07,1.35.28,1.61,1.5,3.52,1.66,5.51,1.13,1.11-.3,1.96-1.03,2.04-2.32.08-1.24-.73-1.82-1.72-2.26-.79-.35-1.59-.68-2.37-1.06-1.47-.71-2.85-1.56-2.58-3.5.27-1.99,1.73-2.88,3.5-3.36.45-.12.94-.1.85-.09Z"/>
      <path class="cls-4" d="m84.1,329.47c1.84-.04,3.4.55,4.55,2.03.27.34.7.76.18,1.21-.37.32-.69.07-1.03-.17-4.33-3.05-8.55-1.68-10.11,3.32-.68,2.16-.66,4.31,1.37,5.74,1.93,1.36,3.99,1.06,5.99-.12.5-.3,1.05-1.46,1.66-.44.44.73-.59,1.15-1.13,1.51-2.32,1.58-5.45,1.53-7.53-.05-1.93-1.47-2.56-4.05-1.69-6.85,1.16-3.7,4.25-6.17,7.73-6.18Z"/>
      <path class="cls-4" d="m200.15,341.73c3.22-4.37,5.77-8.57,9.07-12.19.5,1.11-.23,1.6-.63,2.18-2.49,3.62-5.03,7.2-7.56,10.79-.35.5-.69,1.21-1.43.96-.56-.19-.57-.88-.66-1.42-.59-3.55-1.21-7.1-1.77-10.66-.09-.55-.53-1.44.3-1.62,1.06-.23.88.81.99,1.45.54,3.3,1.06,6.61,1.69,10.51Z"/>
      <path class="cls-1" d="m437.57,209.63c0-2.04,0-4.08,0-6.11,0-.68-.16-1.46.99-1.42,1.13.04.95.82.95,1.5,0,4.08,0,8.15,0,12.23,0,.67.23,1.47-.9,1.53-1.34.07-1.03-.88-1.04-1.61-.02-2.04,0-4.08,0-6.11Z"/>
      <path class="cls-4" d="m345.13,336.57c3-2.13,4.71-5.47,7.83-7.11.29.31.59.62.88.93-1.42,1.21-2.89,2.37-4.24,3.66-2.38,2.27-4.94,4.45-5.16,8.12-.03.47-.18,1.22-.98,1.02-.49-.12-.43-.68-.28-.99,1.94-3.95-.03-7.26-1.63-10.66-.25-.52-1.13-1.35-.2-1.79.88-.43,1.07.67,1.34,1.26.82,1.78,1.58,3.59,2.44,5.57Z"/>
      <path class="cls-4" d="m126.05,329.61c1.41,0,2.83,0,4.24,0,.39,0,.86.05.86.55,0,.44-.37.64-.8.7-.08.01-.16.03-.23.01-4.16-1.04-4.4,2-5.04,4.73-.53,2.28-1.22,4.53-1.83,6.8-.15.56-.39,1.17-1.08.91-.56-.21-.26-.8-.14-1.23.81-3.02,1.56-6.06,2.47-9.06.49-1.64.18-2.39-1.64-2.14-.15.02-.32.03-.47,0-.63-.14-1.76.38-1.75-.56,0-1.13,1.19-.66,1.89-.7,1.17-.07,2.35-.02,3.53-.02Z"/>
      <path class="cls-4" d="m421.17,329.61c1.41,0,2.83,0,4.24,0,.37,0,.86-.06.94.46.09.63-.41.74-.9.8-.08.01-.16.02-.23,0-3.47-.83-4.18,1.36-4.69,4.06-.47,2.45-1.27,4.84-1.94,7.26-.14.5-.22,1.24-.98,1.05-.9-.22-.31-.92-.2-1.35.77-3.04,1.49-6.09,2.44-9.07.52-1.65.1-2.03-1.51-1.99-.81.02-2.34.61-2.35-.55-.01-1.19,1.52-.58,2.37-.67.93-.1,1.88-.02,2.82-.02Z"/>
      <path class="cls-4" d="m391.8,343.48q-4.72,0-3.53-4.54c.72-2.73,1.46-5.45,2.21-8.17.14-.52.3-1.24,1.01-1.03.77.24.31.92.18,1.39-.79,3.03-1.58,6.07-2.45,9.08-.41,1.44-.31,2.24,1.51,2.06,1.32-.13,2.67-.07,4.01,0,.55.03,1.53-.38,1.55.47.03,1.02-1.03.68-1.66.72-.94.06-1.89.01-2.83.01Z"/>
      <path class="cls-4" d="m228.18,343.45q-4.51.03-3.35-4.39c.72-2.72,1.43-5.45,2.18-8.17.15-.55.23-1.45,1.11-1.16.79.26.21.97.1,1.41-.79,3.11-1.54,6.24-2.5,9.3-.5,1.61,0,1.91,1.47,1.83,1.57-.09,3.14-.03,4.71,0,.35,0,.86-.12.96.41.12.68-.47.74-.9.76-1.25.04-2.51.01-3.77.01Z"/>
      <path class="cls-4" d="m24.42,329.79c-.18,2.56-1.12,4.96-1.77,7.42-1.34,5.04-1.37,5,3.9,5.08.79.01,2.25-.64,2.29.61.03.92-1.44.54-2.25.57-1.81.06-3.62.03-5.44,0-.72,0-1.48.02-1.16-1.15,1.11-4.01,2.17-8.04,3.28-12.05.07-.25.38-.43.58-.64.19.05.38.11.57.16Z"/>
      <path class="cls-4" d="m426.79,343.37c-.87.01-.86-.48-.73-.96,1.07-4,2.15-8,3.24-12,.11-.4.33-.75.79-.72.51.03.62.44.52.85-1.09,4.08-2.19,8.15-3.31,12.22-.07.26-.37.46-.5.61Z"/>
      <path class="cls-4" d="m153.62,342.41c1.08-3.96,2.21-8.11,3.38-12.25.06-.21.47-.46.7-.45.52.03.55.47.44.87-1.1,4.08-2.2,8.16-3.31,12.24-.11.42-.46.65-.9.54-.36-.09-.4-.42-.31-.95Z"/>
      <path class="cls-4" d="m133.98,338.24c-.88-.26-2.47.36-2.45-.54.02-1.35,1.58-.68,2.46-.72.84-.04,2.42-.42,2.4.46-.03,1.41-1.62.4-2.41.79Z"/>
      <path class="cls-4" d="m124.66,180.83c.38-.45.8-.81,1.51-.7-.36.62-.92.67-1.49.72l-.02-.02Z"/>
      <path class="cls-4" d="m122.48,181.83c.37-.2.85-.76,1.12-.3.22.37-.4.65-.84.71-.09-.14-.18-.27-.28-.41Z"/>
      <path class="cls-6" d="m142.44,248.13c.18.35.37.69,0,1.04-.11-.26-.21-.52-.32-.78.1-.1.2-.18.32-.26Z"/>
      <path class="cls-4" d="m124.68,180.85c-.06.11-.12.21-.18.32-.07-.06-.13-.12-.2-.17.12-.05.24-.11.36-.16,0,0,.02.02.02.02Z"/>
      <path class="cls-3" d="m94.3,201.94c9.64,6.29,18.37,13.66,26.4,21.87.38.39.83.7,1.25,1.05.05.7-.4,1.16-.78,1.66-7.1,9.26-15.44,17.3-24.51,24.59-.22.18-.55.22-.84.33-10.26-6.55-19.19-14.65-27.55-23.42,2.84-4.57,6.62-8.36,10.33-12.19,4.88-5.02,10.05-9.73,15.7-13.9Z"/>
      <path class="cls-3" d="m349.44,245.6c3.46,0,6.92-.06,10.38.02,4.47.11,6.46,2.26,6.7,7.05.24,4.86-1.86,8.06-6.08,8.21-7.46.26-14.94.09-22.41.14-.96,0-1.2-.43-1.2-1.28.02-4.32.04-8.64,0-12.95-.01-1.42.93-1.18,1.76-1.18,3.62,0,7.24,0,10.85,0Z"/>
      <path class="cls-3" d="m260.92,215.33h-20.57c3.1-5.96,6.07-11.73,9.12-17.45.77-1.43,1.81-1.24,2.69.45,2.89,5.56,5.74,11.14,8.76,17Z"/>
      <path class="cls-3" d="m466.15,311.1c-2.28,0-4.56.05-6.84-.01-2.03-.05-3.13-1.07-3.26-3.2-.2-3.22-.29-6.42.08-9.64.19-1.61.9-2.67,2.58-2.85,5.09-.56,10.2-.48,15.29-.04,1.65.14,2.44,1.22,2.54,2.87.18,3.22.2,6.43-.02,9.65-.14,2.09-1.25,3.12-3.3,3.22-2.36.11-4.71.21-7.07.32,0-.1,0-.21,0-.31Z"/>
      <path class="cls-3" d="m315.59,336.65c-.69-.43-2.25.8-2.51-.78-.37-2.2,1.44-4.94,2.96-4.97,1.02-.02,2.05,0,3.07.06,1.08.07,2.05.43,2.35,1.61.32,1.27-.06,2.33-1.14,3.1-1.37.98-2.96.97-4.72.97Z"/>
      <path class="cls-3" d="m384.32,335.53c-.03,3.74-3.1,6.91-6.63,6.86-2.79-.04-4.65-1.99-4.62-4.84.04-3.63,3.31-7.06,6.65-6.97,2.64.07,4.63,2.2,4.6,4.94Z"/>
      <path class="cls-3" d="m45.21,335.6c-.06,3.76-3.13,6.88-6.7,6.79-2.77-.06-4.62-2.06-4.55-4.91.09-3.62,3.42-7.04,6.73-6.9,2.66.12,4.56,2.23,4.52,5.01Z"/>
      <path class="cls-3" d="m444.89,335.44c.02,3.75-2.98,6.96-6.52,6.96-2.82,0-4.69-1.88-4.71-4.74-.03-3.59,3.23-7.09,6.56-7.07,2.72.02,4.65,2.03,4.67,4.85Z"/>
      <path class="cls-3" d="m103,335.45c.01,3.81-2.93,6.96-6.5,6.94-2.84-.01-4.61-1.85-4.62-4.77,0-3.71,3.13-7.1,6.5-7.04,2.76.05,4.6,2,4.61,4.87Z"/>
      <path class="cls-3" d="m217.63,331.34c.19.68.3,1.02.39,1.37,1.51,6.11,1.3,6.34-5.42,5.52,1.68-2.3,3.27-4.47,5.03-6.89Z"/>
    </g>
  </g>
</svg>