<?xml version="1.0" encoding="UTF-8"?>
<svg id="Layer_1" data-name="Layer 1" xmlns="http://www.w3.org/2000/svg" viewBox="0 0 500 500">
  <defs>
    <style>
      .cls-1 {
        fill: #231f20;
        stroke-width: 0px;
      }
    </style>
  </defs>
  <g>
    <path class="cls-1" d="m280.62,237.68c0,5.5-3.77,7.96-11.25,7.96s-11.24-2.46-11.24-7.96,3.75-7.93,11.24-7.93,11.25,2.44,11.25,7.93Zm-4.74,0c0-3.31-1.72-3.93-6.51-3.93s-6.51.62-6.51,3.93,1.72,3.96,6.51,3.96,6.51-.64,6.51-3.96Z"/>
    <path class="cls-1" d="m295.77,241.45h-8.05v3.93h-4.74v-7.86h13.25c1.47,0,2.32-.71,2.32-1.77s-.85-1.75-2.32-1.75h-13.25l3.15-4h9.66c4.76,0,7.54,2.35,7.54,5.77s-2.78,5.68-7.57,5.68Z"/>
    <path class="cls-1" d="m324.87,230l-3.08,4h-5.5v11.38h-4.76v-11.38h-7.22l3.08-4h17.48Z"/>
    <path class="cls-1" d="m331.15,245.39h-4.76v-15.38h4.76v15.38Z"/>
    <path class="cls-1" d="m344.74,235.73c1.36,2.37,1.96,3.52,2.48,4.6.51-1.08,1.1-2.21,2.46-4.58l2.46-4.37c.55-.99,1.38-1.63,2.62-1.63s2.25.69,2.67,2.12l3.89,13.52h-4.74l-1.45-5.36c-.48-1.75-.8-2.99-1.06-4.23-.51,1.08-1.08,2.25-2.14,4.25l-2.07,3.86c-.8,1.52-1.59,1.72-2.74,1.72s-1.93-.21-2.74-1.72l-2.07-3.89c-1.13-2.12-1.68-3.2-2.16-4.23-.23,1.22-.57,2.51-1.03,4.23l-1.45,5.36h-4.67l3.98-13.52c.41-1.43,1.49-2.12,2.69-2.12s2.05.62,2.6,1.63l2.46,4.35Z"/>
    <path class="cls-1" d="m382.2,238.67c0,4.65-3.2,6.97-9.59,6.97-7.4,0-10.6-2.32-10.6-6.97v-8.67h4.74v8.67c0,2.28.97,3.01,5.86,3.01,3.66,0,4.81-.85,4.81-3.01v-8.67h4.78v8.67Z"/>
    <path class="cls-1" d="m394.67,235.73c1.36,2.37,1.96,3.52,2.48,4.6.51-1.08,1.1-2.21,2.46-4.58l2.46-4.37c.55-.99,1.38-1.63,2.62-1.63s2.25.69,2.67,2.12l3.89,13.52h-4.74l-1.45-5.36c-.48-1.75-.8-2.99-1.06-4.23-.51,1.08-1.08,2.25-2.14,4.25l-2.07,3.86c-.8,1.52-1.59,1.72-2.74,1.72s-1.93-.21-2.74-1.72l-2.07-3.89c-1.13-2.12-1.68-3.2-2.16-4.23-.23,1.22-.57,2.51-1.03,4.23l-1.45,5.36h-4.67l3.98-13.52c.41-1.43,1.49-2.12,2.69-2.12s2.05.62,2.6,1.63l2.46,4.35Z"/>
  </g>
  <path class="cls-1" d="m159.97,232.09l-7.9,15.23h-27.92v43.34h-18.12v-43.34h-20.69l-7.34-15.23h81.97Z"/>
  <g>
    <path class="cls-1" d="m277.88,253.89l-2.96,3.84h-5.28v10.94h-4.57v-10.94h-6.94l2.96-3.84h16.79Z"/>
    <path class="cls-1" d="m299.02,262.22c0,4.46-3.07,6.7-9.21,6.7-7.11,0-10.19-2.23-10.19-6.7v-8.33h4.55v8.33c0,2.19.93,2.89,5.63,2.89,3.51,0,4.62-.82,4.62-2.89v-8.33h4.6v8.33Z"/>
    <path class="cls-1" d="m323.12,268.67h-6.12l-3.29-3.91h-7.03v3.91h-4.57v-7.56h12.86c1.41,0,2.52-.64,2.52-1.66,0-1.15-.95-1.72-2.52-1.72h-12.86l2.98-3.84h9.5c3.36,0,7.6,1.06,7.6,5.28,0,2.3-1.44,4.2-3.87,4.68.51.38,1.06.91,2.08,1.94l2.72,2.87Z"/>
    <path class="cls-1" d="m344.3,264.37c0,2.45-1.35,4.31-6.01,4.31h-12.99v-8.99h13.08c.66,0,1.28-.24,1.28-1s-.64-.95-1.28-.95h-13.08l3.09-3.84h9.79c3.54,0,5.81,1.37,5.81,4.09,0,1.75-.99,2.72-2.01,3.09,1.28.38,2.32,1.52,2.32,3.29Zm-14.41-1.52v2.03h8.42c1,0,1.41-.35,1.41-1.04,0-.64-.42-.99-1.41-.99h-8.42Z"/>
    <path class="cls-1" d="m351.79,268.67h-4.57v-14.78h4.57v14.78Z"/>
    <path class="cls-1" d="m368.33,268.12l-9.06-8.13v8.68h-4.15v-12.26c0-1.97,1.19-2.76,2.5-2.76.55,0,1.1.13,1.83.79l9.06,8.13v-8.68h4.18v12.24c0,1.97-1.19,2.78-2.52,2.78-.57,0-1.13-.13-1.83-.8Z"/>
    <path class="cls-1" d="m393.1,264.88l-2.94,3.8h-14.23v-14.78h17.12l-2.96,3.84h-9.57v1.77h11.71l-2.63,3.36h-9.08v2.01h12.57Z"/>
  </g>
  <g>
    <path class="cls-1" d="m269.73,281.38c1.3,2.28,1.88,3.38,2.39,4.42.49-1.04,1.06-2.12,2.36-4.4l2.36-4.2c.53-.95,1.33-1.57,2.52-1.57s2.17.66,2.56,2.03l3.73,12.99h-4.55l-1.39-5.15c-.46-1.68-.77-2.87-1.02-4.07-.49,1.04-1.04,2.17-2.05,4.09l-1.99,3.71c-.77,1.46-1.53,1.66-2.63,1.66s-1.86-.2-2.63-1.66l-1.99-3.73c-1.08-2.03-1.61-3.07-2.08-4.07-.22,1.17-.55,2.41-.99,4.07l-1.39,5.15h-4.49l3.82-12.99c.4-1.37,1.44-2.03,2.58-2.03s1.97.6,2.5,1.57l2.36,4.18Z"/>
    <path class="cls-1" d="m293.36,290.66l2.76-3.8h3.71c.88,0,1.92,0,2.63.04-.4-.53-1.02-1.44-1.5-2.14l-2.65-3.91-6.94,9.81h-5.41l9.48-13.37c.62-.86,1.52-1.66,2.96-1.66s2.28.73,2.92,1.66l9.24,13.37h-17.19Z"/>
    <path class="cls-1" d="m325.1,290.11l-9.06-8.13v8.68h-4.15v-12.26c0-1.97,1.19-2.76,2.5-2.76.55,0,1.1.13,1.83.79l9.06,8.13v-8.68h4.18v12.24c0,1.97-1.19,2.78-2.52,2.78-.57,0-1.13-.13-1.83-.8Z"/>
    <path class="cls-1" d="m351.13,284.21c0,4.46-3.07,6.7-9.21,6.7-7.11,0-10.19-2.23-10.19-6.7v-8.33h4.55v8.33c0,2.19.93,2.89,5.63,2.89,3.51,0,4.62-.82,4.62-2.89v-8.33h4.6v8.33Z"/>
    <path class="cls-1" d="m370.06,275.88l-2.96,3.84h-9.01v1.92h11.14l-2.78,3.6h-8.35v5.41h-4.6v-14.78h16.57Z"/>
    <path class="cls-1" d="m373.9,290.66l2.76-3.8h3.71c.88,0,1.92,0,2.63.04-.4-.53-1.02-1.44-1.5-2.14l-2.65-3.91-6.94,9.81h-5.41l9.48-13.37c.62-.86,1.52-1.66,2.96-1.66s2.28.73,2.92,1.66l9.24,13.37h-17.19Z"/>
    <path class="cls-1" d="m409.02,286.86l-2.94,3.8h-7.42c-5.13,0-8.9-3.25-8.9-7.53s3.78-7.25,8.9-7.25h10.36l-2.94,3.84h-7.42c-2.47,0-4.33,1.48-4.33,3.6s1.83,3.54,4.33,3.54h10.36Z"/>
    <path class="cls-1" d="m428.75,275.88l-2.96,3.84h-5.28v10.94h-4.57v-10.94h-6.94l2.96-3.84h16.79Z"/>
    <path class="cls-1" d="m449.11,284.21c0,4.46-3.07,6.7-9.21,6.7-7.11,0-10.19-2.23-10.19-6.7v-8.33h4.55v8.33c0,2.19.93,2.89,5.63,2.89,3.51,0,4.62-.82,4.62-2.89v-8.33h4.6v8.33Z"/>
    <path class="cls-1" d="m472.44,290.66h-6.12l-3.29-3.91h-7.03v3.91h-4.57v-7.56h12.86c1.41,0,2.52-.64,2.52-1.66,0-1.15-.95-1.72-2.52-1.72h-12.86l2.98-3.84h9.5c3.36,0,7.6,1.06,7.6,5.28,0,2.3-1.44,4.2-3.87,4.68.51.38,1.06.91,2.08,1.94l2.72,2.87Z"/>
    <path class="cls-1" d="m491.02,286.86l-2.94,3.8h-14.23v-14.78h17.12l-2.96,3.84h-9.57v1.77h11.71l-2.63,3.36h-9.08v2.01h12.57Z"/>
  </g>
  <path class="cls-1" d="m58.87,225.21c-20.72,0-37.52,16.8-37.52,37.52s16.8,37.52,37.52,37.52,37.52-16.8,37.52-37.52-16.8-37.52-37.52-37.52Zm.26,65.23c-15.2,0-27.53-12.32-27.53-27.53s12.32-27.53,27.53-27.53,27.53,12.32,27.53,27.53-12.32,27.53-27.53,27.53Z"/>
  <path class="cls-1" d="m178.58,254.09c4.99,8.71,7.19,12.95,9.14,16.92,1.86-3.97,4.06-8.12,9.06-16.84l9.05-16.08c2.03-3.64,5.08-6.01,9.65-6.01s8.29,2.54,9.81,7.78l14.3,49.76h-17.43l-5.33-19.72c-1.78-6.43-2.96-11-3.89-15.57-1.86,3.97-3.98,8.29-7.87,15.65l-7.62,14.22c-2.96,5.58-5.84,6.35-10.07,6.35s-7.11-.76-10.07-6.35l-7.62-14.3c-4.15-7.78-6.18-11.76-7.96-15.57-.84,4.48-2.11,9.22-3.81,15.57l-5.33,19.72h-17.18l14.64-49.76c1.52-5.25,5.5-7.78,9.9-7.78s7.53,2.29,9.56,6.01l9.05,15.99Z"/>
  <g>
    <path class="cls-1" d="m198.72,283.15c7.96,7.89,11.27,16.15,6.42,25.15-8.51,15.79-57.17,6.06-108.68-21.71-.32-.17-.64-.35-.96-.52.04.02.08.04.11.07,57.63,33.27,111.62,47.66,120.59,32.12,5.7-9.88-9.93-29.31-17.49-35.1Z"/>
    <path class="cls-1" d="m18.62,207.7c8.51-15.78,57.11-6.08,108.58,21.66-57.3-32.91-110.78-47.06-119.7-31.61-5.75,9.97,9.5,28.2,20.93,39.36-8.59-8.52-14.72-20.3-9.81-29.41Z"/>
  </g>
  <g>
    <path class="cls-1" d="m64.1,271.07c-.55.35-1.13.64-1.74.87l-2.48,16.22c2.47-.1,4.85-.55,7.09-1.31l-2.87-15.79Z"/>
    <path class="cls-1" d="m58.87,254.06c-4.84,0-8.77,3.93-8.77,8.77,0,2.51,1.07,4.78,2.77,6.38h.03s.03.05.03.05c.14.13.28.26.42.38-.14-.17-.29-.33-.42-.51-1.39-1.89-1.96-4.2-1.61-6.52.59-3.88,4.22-6.56,8.11-5.97,3.16.48,5.34,3.44,4.86,6.6-.39,2.58-2.81,4.37-5.39,3.97-1.03-.16-1.93-.7-2.55-1.54-.62-.84-.87-1.86-.71-2.89.13-.85.58-1.59,1.27-2.1.69-.51,1.54-.72,2.39-.59.71.11,1.33.48,1.75,1.06.42.57.6,1.28.49,1.98-.09.59-.4,1.11-.88,1.46-.48.35-1.07.5-1.66.41-.54-.08-1.12-.48-1.52-1.04-.27-.38-.54-.97-.59-1.78-.13.23-.21.48-.26.75-.12.76.07,1.53.53,2.15.46.62,1.13,1.03,1.89,1.14,2.04.31,3.95-1.1,4.26-3.13.4-2.61-1.41-5.06-4.02-5.46-3.33-.5-6.46,1.79-6.97,5.13-.31,2.05.19,4.1,1.43,5.78,1.11,1.51,2.7,2.54,4.51,2.96v-.03s.11.05.11.05c.14.03.28.06.42.08.03,0,.06,0,.09,0,.8,0,1.58-.12,2.32-.32l.02-.11.25.04c.88-.27,1.7-.69,2.44-1.21v-.06s.11-.02.11-.02c2.19-1.6,3.63-4.17,3.63-7.09,0-4.84-3.93-8.77-8.77-8.77Z"/>
    <path class="cls-1" d="m66.45,268.98c-.37.46-.78.87-1.23,1.26l2.94,16.18c2.12-.84,4.11-1.95,5.9-3.3l-7.61-14.14Z"/>
    <path class="cls-1" d="m59.14,264.01c.32.05.65-.03.92-.23.27-.2.44-.48.49-.81.07-.44-.04-.88-.31-1.24-.26-.36-.65-.59-1.09-.66-.41-.06-.82,0-1.2.15-.2,1.08.07,1.77.34,2.16.27.39.62.59.85.63Z"/>
    <path class="cls-1" d="m61.03,272.35c-.62.14-1.27.22-1.93.24l-7.61,14.5c2.26.69,4.65,1.07,7.13,1.09l2.42-15.83Z"/>
    <path class="cls-1" d="m68.54,261.46l15.09,6.62c.35-1.67.53-3.4.53-5.17,0-.65-.03-1.29-.08-1.93l-15.97-1.31c.2.58.34,1.17.43,1.79Z"/>
    <path class="cls-1" d="m80.56,275.91c1.22-2.03,2.16-4.24,2.78-6.59l-14.69-6.45c0,.64-.07,1.27-.19,1.87l12.1,11.17Z"/>
    <path class="cls-1" d="m43.93,283.3c1.92,1.41,4.05,2.56,6.34,3.39l7.44-14.17c-.65-.08-1.28-.22-1.89-.42l-11.89,11.2Z"/>
    <path class="cls-1" d="m49.42,265.24l-15.78-3.85c-.03.5-.05,1.01-.05,1.51,0,1.9.22,3.76.62,5.54l15.84-1.47c-.26-.55-.47-1.14-.63-1.74Z"/>
    <path class="cls-1" d="m66.58,256.84c.37.47.7.98.97,1.52l16.4,1.35c-.3-2.39-.94-4.68-1.86-6.82l-15.51,3.95Z"/>
    <path class="cls-1" d="m49.88,259.01l-10.05-12.72c-1.54,1.76-2.83,3.72-3.84,5.86l13.35,8.57c.13-.59.31-1.16.54-1.7Z"/>
    <path class="cls-1" d="m58.25,253.09c.21-.01.41-.03.62-.03.42,0,.83.04,1.23.09l-.08-.06,9.96-12.89c-2.07-1.01-4.29-1.75-6.63-2.17l-5.1,15.06Z"/>
    <path class="cls-1" d="m50.52,257.79c.3-.5.65-.97,1.04-1.41l-5.37-15.33c-2.03,1.18-3.87,2.63-5.49,4.3l9.83,12.44Z"/>
    <path class="cls-1" d="m55.21,253.78c.56-.23,1.15-.41,1.75-.53l-.08-.03,5.21-15.38c-1.05-.13-2.13-.21-3.22-.21-1.27,0-2.52.1-3.74.28l.08,15.87Z"/>
    <path class="cls-1" d="m49.16,263.89c-.04-.35-.06-.7-.06-1.06,0-.26.02-.51.04-.76l-13.66-8.77c-.88,2.14-1.48,4.43-1.74,6.82l15.42,3.76Z"/>
    <path class="cls-1" d="m54.55,271.58c-.58-.29-1.12-.62-1.62-1.01l-14.86,6.71c1.37,1.97,3,3.74,4.86,5.26l11.62-10.95Z"/>
    <path class="cls-1" d="m68.07,266.1c-.22.61-.49,1.18-.81,1.73l7.81,14.5c1.84-1.54,3.47-3.34,4.81-5.33l-11.8-10.89Z"/>
    <path class="cls-1" d="m61.37,253.39c.59.16,1.16.37,1.7.63l-.03-.05,13.67-8.98c-1.65-1.65-3.54-3.06-5.59-4.2l-9.74,12.61Z"/>
    <path class="cls-1" d="m52.54,255.4c.45-.38.94-.73,1.45-1.02h-.04s-.09-16.25-.09-16.25c-2.32.47-4.53,1.25-6.57,2.31l5.24,14.97Z"/>
    <path class="cls-1" d="m51.89,269.65c-.44-.45-.84-.94-1.18-1.47l-16.19,1.5c.65,2.33,1.61,4.52,2.86,6.53l14.52-6.56Z"/>
    <path class="cls-1" d="m65.63,255.79l15.92-4.06c-1.05-2.12-2.38-4.08-3.96-5.81l-13.34,8.77c.49.33.95.7,1.38,1.11Z"/>
  </g>
  <path class="cls-1" d="m248.63,296.38c-.28,0-.5-.22-.5-.5v-70.68c0-.28.22-.5.5-.5s.5.22.5.5v70.68c0,.28-.22.5-.5.5Z"/>
</svg>