<?xml version="1.0" encoding="UTF-8"?>
<svg id="Layer_1" data-name="Layer 1" xmlns="http://www.w3.org/2000/svg" viewBox="0 0 500 500">
  <defs>
    <style>
      .cls-1 {
        fill: #7fbc43;
      }

      .cls-1, .cls-2, .cls-3, .cls-4, .cls-5 {
        stroke-width: 0px;
      }

      .cls-2 {
        fill: #fff;
      }

      .cls-3 {
        fill: #ffb516;
      }

      .cls-4 {
        fill: #ea184f;
      }

      .cls-5 {
        fill: #6b3728;
      }
    </style>
  </defs>
  <path class="cls-1" d="m48.65,247.64c-4.4-.19-8.27-1.76-11.74-4.42-4.48-3.43-7.31-7.92-8.53-13.39-.43-1.92-.46-3.93-.04-5.9.3-1.44,2.06-2.19,3.63-1.52,3.92,1.69,7.58,3.81,10.97,6.41,5.09,3.9,9.46,8.54,13.6,13.41,1.21,1.42.82,3.11-.87,3.93-2.2,1.07-4.54,1.6-7.01,1.48Z"/>
  <path class="cls-3" d="m80.97,252.42c9.44-.16,18.11,7.02,20.52,15.6.66,2.35.78,4.71.73,7.12-.04,2.04-1.95,3.25-3.89,2.38-7.46-3.31-13.62-8.29-19.24-14.07-1.65-1.7-3.07-3.61-4.73-5.29-1.61-1.63-1.45-3.89,1.41-4.89,1.75-.61,3.55-1.15,5.19-.86Z"/>
  <path class="cls-5" d="m57.13,256.12c.08.55-.14,1.06-.53,1.54-6.77,8.19-14.34,15.4-24.24,19.76-1.83.81-3.58.26-3.98-1.42-.23-.95-.31-2-.25-2.94.47-6.92,3.7-12.35,9.17-16.56,3.64-2.8,7.75-4.1,12.26-4.05,2.13.02,4.27.37,6.21,1.42,1.03.56,1.35,1.08,1.36,2.24Z"/>
  <path class="cls-4" d="m81.33,247.39c-2.09.19-4.1-.15-6.04-.98-1.89-.81-2.48-2.63-1.2-4.19,5.18-6.28,10.88-12,17.85-16.32,1.85-1.15,3.77-2.18,5.77-3.06,2.87-1.26,4.43-.35,4.52,2.76.17,5.61-1.78,10.46-5.48,14.63-3.31,3.74-7.47,6.04-12.3,7.13-.99.22-2.07.03-3.11.03Z"/>
  <path class="cls-4" d="m67.61,233.81c.07-6.49,3.07-11.57,7.8-15.73,3.93-3.45,8.51-5.34,13.84-5.06,2.42.13,4.73.68,6.85,1.96,1.03.62,1.16,1.48,1.13,2.55-.03.97-.61,1.39-1.36,1.74-6.41,2.99-12.02,7.1-17.08,12.02-2.06,2-3.99,4.11-5.91,6.24-.33.37-.69.72-1.05,1.07-.59.57-1.34,1.07-2.1.69-.84-.42-1.69-.93-1.87-2.12-.17-1.11-.18-2.22-.26-3.34Z"/>
  <path class="cls-5" d="m41.57,286.98c-2.33.21-4.64-.7-6.88-1.77-.91-.44-1.64-1.16-1.59-2.29.04-1.11.74-1.79,1.71-2.24,3.29-1.49,6.37-3.36,9.3-5.47,5.33-3.82,9.94-8.43,14.17-13.41.82-.96,1.81-1.02,2.81-.8.92.2,1.4,1.04,1.53,1.94.37,2.43.5,4.88-.2,7.26-2.59,8.93-8.35,14.55-17.51,16.54-.36.08-.72.2-1.09.22-.67.04-1.33.01-2.24.01Z"/>
  <path class="cls-1" d="m42.06,213.07c8.43.45,14.51,4.65,18.5,11.96,1.97,3.62,2.77,7.53,2.07,11.67-.29,1.75-1.25,2.56-2.87,2.44-.88-.06-1.28-.73-1.74-1.27-2.56-3.03-5.48-5.71-8.3-8.49-3.06-3.02-6.64-5.38-10.28-7.63-1.46-.9-3.1-1.43-4.57-2.35-.97-.6-1.89-1.17-1.77-2.44.11-1.23,1.01-2.04,2.03-2.45,2.19-.89,4.45-1.66,6.93-1.43Z"/>
  <path class="cls-3" d="m87.98,286.96c-2.78-.08-5.4-.81-7.86-2.04-5.49-2.75-9.26-7.11-11.43-12.8-1.14-2.98-1.39-6.12-.76-9.28.17-.83.64-1.64,1.52-1.83,1.01-.21,2.03-.19,2.84.76,3.51,4.14,7.3,8,11.53,11.41,3.62,2.91,7.49,5.42,11.72,7.36.89.41,1.64.89,1.7,2.08.07,1.27-.49,2.02-1.55,2.58-2.42,1.28-4.99,1.82-7.71,1.76Z"/>
  <path class="cls-2" d="m443.61,278.86c-13.58.32-26.07-11.86-25.7-26.76.33-13.43,11.06-26.24,27.24-25.61,14.3.56,25.32,11.47,25.37,26.02.05,14.4-11.05,26.63-26.9,26.35Zm.57-42.84c-9.34-.56-16.41,7.89-16.75,15.58-.45,10.17,7.8,17.9,15.9,18.01,10.44.14,17.57-7.65,17.72-16.7.16-9.35-7.58-17.36-16.86-16.89Z"/>
  <path class="cls-2" d="m350.46,251.9c0-7.08,0-14.17,0-21.25,0-2.1.64-3.05,2.42-3.7,1.2-.44,3.52.27,4.33,1.52,1.16,1.8,2.82,3.13,4.19,4.72,3.57,4.16,7.4,8.1,11.08,12.17,2.39,2.64,4.71,5.36,7.07,8.04.84.95,1.68,1.89,3.18,1.37,1.51-.52,1.66-1.86,1.7-3.1.1-2.8.03-5.6.03-8.4,0-4.06-.01-8.13,0-12.19.01-2.76,2.53-4.77,5.26-4.22,2.77.56,4.13,2.22,4.13,5.12,0,13.73,0,27.45,0,41.18,0,1.92-1.01,3.73-2.27,4.09-2.28.66-3.37.18-4.9-1.81-1.05-1.37-2.35-2.55-3.51-3.85-3.75-4.23-7.65-8.32-11.45-12.5-2.51-2.76-4.95-5.59-7.41-8.39-.44-.5-.96-.9-1.58-1.08-1.69-.47-2.83.51-2.84,2.43-.01,6.7,0,13.4,0,20.1,0,3.24-1.72,5.69-5.39,5.47-2.2-.13-4-1.72-4.02-3.98-.04-7.25-.02-14.49-.02-21.74-.01,0-.02,0-.03,0Z"/>
  <path class="cls-2" d="m310.89,252.17c0-6.86.13-13.73-.06-20.58-.08-2.7,2.43-4.92,4.89-4.91,8.07.03,16.14,0,24.22.02,2.35,0,4.34,1.54,4.63,3.41.37,2.41-.67,4.2-2.86,5.19-.45.21-.83.17-1.24.17-5.33,0-10.65,0-15.98,0-2.87,0-4.06,1.11-4.13,3.93-.04,1.81-.02,3.62.1,5.43.14,1.95,1.35,3.02,3.38,3.04,4.23.04,8.46,0,12.68.02,1.71.01,3.2.61,4.08,2.17.94,1.67.9,3.29-.3,4.89-.85,1.13-1.9,1.66-3.27,1.66-4.12,0-8.24,0-12.36,0-3.14,0-4.28,1.11-4.33,4.26-.02,1.48.13,2.97.01,4.44-.18,2.16,1.81,3.73,3.86,3.69,5.16-.11,10.32,0,15.48-.06,2.6-.03,5.22,1.4,4.89,5.01-.17,1.86-1.91,3.74-3.77,3.74-8.57.01-17.13-.05-25.7.04-1.97.02-4.3-2.13-4.26-4.16.12-7.13.05-14.27.05-21.41h-.01Z"/>
  <path class="cls-2" d="m200.1,268.84c-3.18,0-6.37.02-9.55,0-1.91-.02-3.33.61-4.07,2.53-.51,1.34-1.27,2.59-1.81,3.92-1.12,2.75-3.81,3.14-5.58,2.56-2.31-.76-3.35-3.25-2.43-5.81.71-1.98,1.62-3.89,2.51-5.8,3.79-8.09,7.62-16.17,11.42-24.26,1.89-4.02,3.74-8.05,5.59-12.08.8-1.73,2.1-2.62,4.02-2.65,1.91-.03,3.12.94,3.88,2.58,4.01,8.57,8,17.15,12,25.71,2.45,5.24,4.92,10.47,7.38,15.7,1.27,2.71.64,4.53-1.33,6.06-1.76,1.37-5.38.93-6.47-2.06-.6-1.66-1.48-3.18-2.3-4.71-.64-1.19-1.83-1.71-3.22-1.71-3.35.01-6.7,0-10.05,0Zm-.02-8.24c1.75,0,3.51.05,5.26-.01,1.71-.06,2.88-1.51,2.26-2.89-1.77-3.99-3.6-7.96-5.5-11.89-.76-1.57-2.87-1.45-3.91,0-.88,1.23-1.18,2.69-1.87,4-1.29,2.47-2.35,5.06-3.41,7.63-.68,1.64.3,3.09,2.07,3.15,1.7.06,3.4.01,5.1.01Z"/>
  <path class="cls-2" d="m152.01,278.67c-10.1.39-20.46-7.22-23.79-16.51-1.2-3.34-1.96-6.7-1.86-10.17.19-6.18,2.19-11.72,6.33-16.49,3.66-4.21,8.14-6.94,13.43-8.41,5.51-1.53,10.92-.91,16.23,1.08,1.75.66,3.33,1.57,4.9,2.58,1.74,1.12,2.18,2.81,1.85,4.58-.34,1.8-1.56,3.12-3.36,3.8-1.75.66-3.18-.18-4.57-1-7.7-4.57-17.77-2.42-22.76,5.47-6.14,9.71-1.01,22.42,10.64,25.47,4.28,1.12,8.57.26,12.12-2.19,2.55-1.76,6.23-.74,7.25,1.09,1.51,2.7.62,5.37-2.32,7.13-4.38,2.62-9.08,3.66-14.1,3.58Z"/>
  <path class="cls-2" d="m231.59,252.49c0-7.19,0-14.38,0-21.56,0-1.32,1.5-3.26,2.92-3.63.52-.13,1.08-.19,1.62-.19,8.24-.01,16.48-.06,24.72.01,4.5.04,5.58,4.21,3.96,6.78-.92,1.46-2.36,1.94-4,1.94-5.22,0-10.44,0-15.65,0-2.63,0-3.92,1.2-4,3.79-.05,1.76,0,3.51,0,5.27.01,1.32.96,3.11,2.97,3.16,4.44.1,8.89.09,13.34.13,2.43.02,3.65.92,4.41,3.24.84,2.57-1.14,5.4-3.87,5.43-4.12.04-8.24,0-12.36.01-3.29,0-4.5,1.2-4.5,4.44,0,3.9,0,7.8,0,11.69,0,2.54-1.24,4.42-3.25,4.97-2.1.57-4.66-.39-5.83-2.27-.29-.46-.41-1.02-.41-1.64.03-7.19.02-14.38.02-21.58-.03,0-.05,0-.08,0Z"/>
  <path class="cls-2" d="m271.1,252.64c0-6.81,0-13.62,0-20.43,0-3.63,1.45-5.11,5.04-5.11,7.91-.01,15.82.03,23.73-.02,2.84-.02,5.1,1.71,4.93,4.48-.15,2.52-1.73,4.25-4.27,4.26-5.44.02-10.88,0-16.32.01-2.43,0-3.61,1.11-3.67,3.53-.04,1.54-.01,3.07,0,4.61,0,3.12,1.03,4.18,4.18,4.2,4.06.03,8.13,0,12.2.01,1.96,0,3.8,1.22,4.22,2.73.69,2.47.04,4.3-1.98,5.51-.67.41-1.43.45-2.21.44-4.07-.01-8.13.03-12.19-.02-2.49-.03-4.39,1.11-4.25,4.22.17,3.78.03,7.58.04,11.37.02,3.49-1.72,5.94-5.59,5.6-1.93-.17-3.83-1.86-3.84-3.81-.03-7.19-.01-14.39-.01-21.58h-.01Z"/>
  <path class="cls-2" d="m401.76,252.43c0-6.7,0-13.4,0-20.09,0-3.01,1.5-4.78,3.84-4.97,4.25-.35,5.63,2.24,5.75,4.92.09,2.08.02,4.17.02,6.26,0,11.25,0,22.51,0,33.76,0,1.62-.34,3.07-1.58,4.24-1.15,1.09-3.92,1.89-5.14,1.23-1.54-.83-2.97-2.13-2.94-4.59.09-6.92.03-13.83.03-20.75Z"/>
</svg>