<?xml version="1.0" encoding="UTF-8"?>
<svg id="Layer_1" data-name="Layer 1" xmlns="http://www.w3.org/2000/svg" viewBox="0 0 500 500">
  <defs>
    <style>
      .cls-1, .cls-2, .cls-3, .cls-4, .cls-5, .cls-6, .cls-7 {
        stroke-width: 0px;
      }

      .cls-2 {
        fill: #080808;
      }

      .cls-3 {
        fill: #030303;
      }

      .cls-4 {
        fill: #040404;
      }

      .cls-5 {
        fill: #010101;
      }

      .cls-6 {
        fill: #060606;
      }

      .cls-7 {
        fill: #050505;
      }
    </style>
  </defs>
  <path class="cls-5" d="m354.83,279.97c-2.33,0-3.29-2.71-3.23-5.66.24-10.66.23-21.33.15-31.99-.02-3.27.75-5.17,4.59-5.33,3.7-.15,5.15,1.37,5.18,4.76.1,11.32.07,22.64.43,33.94.13,3.92-2.5,4.28-5,4.28-.66,0-1.45,0-2.14,0Z"/>
  <path class="cls-1" d="m401.22,279.96c1.72-.06,3.18.3,5.49-.53,1.79-1.08,2.04-2.24,2.03-4.12-.04-11.33-.07-22.66-.02-33.99.01-2.78-1.09-4.15-4.06-4.3-4.17-.2-6.17,1.35-6.06,5.61.16,6.17,1.11,12.39-.35,19.56-6.23-6.92-10.12-14.2-14.28-21.23-2.4-4.06-5.78-3.93-9.37-3.53-3.98.45-3.5,3.78-3.49,6.45.04,9.39.34,18.78.27,28.17-.03,3.5-.53,6.79,3.41,7.75,1.45.19,1.53.16,2.79.05,4.44-1.35,4.6-3.32,4.27-7.6-.41-5.34-.1-10.73-.1-17.41,4.23,4.4,6.18,8.6,8.74,12.38,3.05,4.51,3.9,9.45,9.09,12.23"/>
  <path class="cls-1" d="m329.01,279.83c-2.31.13-4.72.15-7.06-.02-1.04-.07-2.08-.25-3.07-.55-6.8-2.08-10.16-6.63-11.38-13.76-1.38-8.05-.2-16.17-.82-24.25-.29-3.87,3.34-3.14,5.88-3.33,3.49-.26,4.18,1.89,4.21,4.62.06,6.8.01,13.6.21,20.4.11,3.64,1.73,6.65,5.43,7.99,3.52,1.27,6.49.03,9-2.48,1.93-1.93,1.86-4.33,1.78-6.81-.2-6.96-.25-13.93-.36-20.89-.04-2.65,1.26-3.91,3.99-3.65,2.39.22,5.74-.37,5.8,3.04.16,8.89,1.86,17.81.09,26.66-1.16,5.79-4.55,9.39-9.87,12.05-1.2.6-2.51.93-3.85,1Z"/>
  <path class="cls-5" d="m174.08,257.09c0-5.17.13-10.35-.04-15.51-.13-3.86,2.01-4.5,5.3-4.57,3.49-.07,4.89,1.29,4.49,4.63-.34,8.69.37,16.18.26,25.19-.03,2.67,1.06,3.74,3.89,3.51,3.79-.31,7.62-.15,11.41-.41,4.39-.3,4.69,2.51,4.86,5.61.17,3.19-1.58,4.32-4.57,4.32-6.79,0-13.58-.07-20.36.06-3.94.07-4.78-2.45-4.86-5.36"/>
  <path class="cls-3" d="m142.96,258.64c-.02-11.57-2.3-9.5,11.8-9.58,1.26,0,2.34.57,2.31,2.01-.03,1.28-.78,2.1-2.14,2.26-.49.06-.99.08-1.49.13-2,.2-5.29-1.18-5.55,1.47-.29,2.91,3.04,1.07,4.68,1.61,1.04.34,1.86.75,2,1.84.18,1.43-.75,2.03-2.05,2.19-.99.12-2,.08-2.97.25-1.02.18-1.99.68-1.8,1.88.14.89,1,1.2,1.89,1.22,1.66.03,3.32-.04,4.98.06,1.48.09,2.57.76,2.42,2.43-.13,1.39-1.07,1.87-2.41,1.86-3.15,0-6.31-.04-9.46.06-2.28.07-2.24-1.36-2.22-2.9.03-2.27,0-4.53,0-6.8Z"/>
  <path class="cls-4" d="m138.7,256.57c-.1,1.94.02,3.93-.34,5.82-.7,3.56-3.06,5.91-6.75,6.09-3.87.19-7.27-1.16-8.54-5.24-1.24-3.96-.38-8.06-.49-12.09-.05-1.56,1.18-1.76,2.41-1.76,1.44,0,2.1.79,2.07,2.15-.06,2.75-.25,5.49-.17,8.23.07,2.24.84,4.37,3.59,4.41,2.75.04,3.57-1.89,3.56-4.29,0-2.59-.03-5.19.02-7.78.03-1.45-.07-3.11,2.23-2.94,1.93.14,2.39,1.34,2.29,3.03-.09,1.45-.02,2.92-.02,4.38.05,0,.1,0,.14,0Z"/>
  <path class="cls-5" d="m438.85,241.36c-.9-2.08-1.47-4.28-4.57-4.34-3.03-.06-3.87,1.91-4.82,4.04-4.85,10.8-9.99,21.48-14.59,32.39-2.45,5.81-.32,5.56,4.07,5.57,3.72.01,4.06-1.22,5.12-3.25,1.11-2.12,2.83-2.89,5.26-2.79,2.98.13,5.97-.03,8.95-.11,2.18-.06,3.83.65,4.9,2.62,2.35,4.34,2.12,3.4,6.57,3.53,1.81-.05,6.28.38,3.82-3.98-4.9-11.23-9.81-22.45-14.7-33.68Zm-1.26,22.69c-2.44.49-4.48.43-6.59.35-1.18-.04-1.56-1.23-1.13-2.22,1-2.29,1.93-4.39,3.24-6.83.25-.47,1.07-.5,1.35-.05.92,1.49,1.49,2.68,2.16,4.03.73,1.47,3.2,4.27.97,4.72Z"/>
  <path class="cls-5" d="m233.89,241.36c-.9-2.08-1.47-4.28-4.57-4.34-3.03-.06-3.87,1.91-4.82,4.04-4.85,10.8-9.99,21.48-14.59,32.39-2.45,5.81-.32,5.56,4.07,5.57,3.72.01,4.06-1.22,5.12-3.25,1.11-2.12,2.83-2.89,5.26-2.79,2.98.13,5.97-.03,8.95-.11,2.18-.06,3.83.65,4.9,2.62,2.35,4.34,2.12,3.4,6.57,3.53,1.81-.05,6.28.38,3.82-3.98-4.9-11.23-9.81-22.45-14.7-33.68Zm-1.26,22.69c-2.44.49-4.48.43-6.59.35-1.18-.04-1.56-1.23-1.13-2.22,1-2.29,1.93-4.39,3.24-6.83.25-.47,1.07-.5,1.35-.05.92,1.49,1.49,2.68,2.16,4.03.73,1.47,3.2,4.27.97,4.72Z"/>
  <path class="cls-5" d="m69.79,251.5c-.4-.92-.65-1.89-2.02-1.92-1.34-.03-1.71.84-2.13,1.79-2.14,4.78-4.42,9.5-6.46,14.33-1.08,2.57-.14,2.46,1.8,2.47,1.64,0,1.8-.54,2.26-1.44.49-.94,1.25-1.28,2.33-1.23,1.32.06,2.64-.01,3.96-.05.96-.03,1.7.29,2.17,1.16,1.04,1.92.94,1.5,2.9,1.56.8-.02,2.78.17,1.69-1.76-2.17-4.97-4.34-9.93-6.5-14.9Zm-.56,10.04c-1.08.22-1.98.19-2.92.16-.52-.02-.69-.54-.5-.98.44-1.01.85-1.94,1.44-3.02.11-.21.47-.22.6-.02.41.66.66,1.19.95,1.78.32.65,1.42,1.89.43,2.09Z"/>
  <path class="cls-1" d="m298.42,271.37c-.74-.37-1.57-.56-2.29-.94-4.52-2.39-4.72-4.31-1.11-7.74,4.87-4.62,6.2-10.11,3.94-16.43-2.16-6.03-7.23-8.12-13-9.01-2.59-.4-5.3-.07-7.96-.07v-.11c-2.32,0-4.66.13-6.97-.03-3.12-.22-4.79,1.09-4.86,4.09-.28,11.34-.51,22.67-.71,34.01-.06,3.32,2.06,4.52,5.13,4.54,2.93.01,4.74-1.21,4.8-4.3.02-1.29.2-2.59.22-3.88.08-4.09,2.19-4.1,5.18-2.55,2.57,1.34,4.33,3.51,6.1,5.64,2.31,2.77,5.23,4.47,8.82,4.99,2.26.32,4.51.06,5.23-2.5.69-2.43-.09-4.49-2.54-5.71Zm-15.68-12.85c-6.23.36-6.67-.06-7-6.98-.46-2.84-.37-5.15,4.02-5.1,6.57.08,9.9,1.6,10.14,5.4.21,3.33-3.12,6.44-7.15,6.67Z"/>
  <path class="cls-7" d="m115.92,252.01c-2.87-3.16-6.5-3.65-10.46-2.36-4.55,1.48-6.36,4.86-6.61,9.13.16,3.56.81,7.23,4.38,8.35,4.33,1.37,4.93-.25,9.59,4.76.62.67,1.91.63,2.73-.15.64-.61.91-1.67.32-2.22-2.26-2.09-.21-3.22.8-4.76,2.51-3.85,2.17-9.55-.74-12.75Zm-7.57,12.16c-3.21-.12-5.17-1.96-5.03-5.39.13-3.27,1.81-5.37,5.17-5.32,3.54.05,5.27,2.31,5.46,5.72-.37,3.28-2.38,5.11-5.6,4.99Z"/>
  <path class="cls-6" d="m94.24,264.11c-2.6-1.16-2.21-2.32-.51-4.25,2.44-2.77,2.47-6.02-.29-8.69-3.37-3.27-7.95-2.55-11.73-1.74-3.2.69-1.38,4.4-1.57,6.82-.06.8,0,1.61,0,2.42-.02,0-.04,0-.06,0,0,2.42-.05,4.84.02,7.25.03,1.19.44,2.22,1.97,2.3,1.31.07,2.4-.26,2.51-1.68.46-6.21,2.74-2.67,4.77-.91.85.74,1.78,1.46,2.79,1.96,1.18.59,2.59,1.1,3.47-.43.83-1.45.04-2.44-1.34-3.05Zm-7.18-5.52c-1.44.19-2.45-.4-2.5-2.35-.04-1.66.14-2.89,2.3-2.76,1.69.1,3.56.06,3.73,2.22.15,1.99-1.27,2.79-3.52,2.89Z"/>
  <path class="cls-2" d="m51.44,249.07c-7.86-1.32-9.4-.09-9.4,7.58v2.47c.09,1.73.19,3.99.33,6.25.08,1.31.16,2.7,2.01,2.78,1.73.08,2.48-.97,2.3-2.45-.41-3.45,1.45-3.93,4.42-3.92,3.94.01,6.24-2.46,6.32-6.11.07-3.62-2.15-5.97-5.99-6.61Zm-2.05,9.39c-1.83.22-2.83-.45-2.83-2.36,0-1.55.05-3.01,2.31-2.75,1.64.19,3.37.2,3.89,2.25-.2,2.02-1.6,2.65-3.37,2.86Z"/>
</svg>